<svg width="240" height="231" viewBox="0 0 240 231" fill="none" xmlns="http://www.w3.org/2000/svg">
    <g clip-path="url(#clip0_2004_327)">
        <path d="M62.6714 59.4976L96.1836 111.201L98.2889 110.344L64.721 58.7478L62.6714 59.4976Z" fill="#3B7CD3"/>
        <path d="M96.1031 111.447L96.0148 111.308L62.3682 59.397L64.8008 58.5081L64.8882 58.6396L98.5828 110.439L96.1031 111.447ZM62.9739 59.6092L96.2586 110.961L97.9895 110.26L64.6367 58.9909L62.9739 59.6092Z" fill="#3B7CD3"/>
        <path d="M64.7222 58.7474L66.4848 58.0293L99.6264 109.03L98.29 110.342L64.7231 58.7464L64.7222 58.7474Z" fill="#DEECFF"/>
        <path d="M98.2533 110.658L64.4224 58.6561L66.5632 57.7825L66.6506 57.9217L99.8834 109.064L98.2523 110.658H98.2533ZM65.0205 58.8433L98.3205 110.032L99.3698 109.003L66.4077 58.2769L65.0205 58.8433Z" fill="#3B7CD3"/>
        <path d="M56.1474 24.8008C45.5047 8.99028 32.4091 -0.819152 26.9025 2.86922C21.3958 6.5576 25.5584 22.4084 36.206 38.215C46.8525 54.0217 59.9442 63.8397 65.4509 60.1264C70.9585 56.414 66.7747 40.6112 56.1474 24.8008ZM63.4406 54.0418C61.2115 55.6364 48.3991 46.282 40.0969 33.9487C31.7947 21.6154 28.6324 8.63123 31.0651 6.88881C33.4978 5.14638 45.3126 12.7103 53.6149 25.0446C61.9171 37.3779 67.3719 51.2271 63.4204 54.0428H63.4406V54.0418Z" fill="#3B7CD3"/>
        <path d="M62.631 61.1284C59.9833 61.1284 56.5503 59.6135 52.6142 56.6663C47.0711 52.5152 41.1776 46.0072 36.0175 38.3434C25.3277 22.4648 21.1805 6.4863 26.7706 2.71824C32.3608 -1.04981 45.608 8.8153 56.2786 24.6901C66.9492 40.5649 71.1166 56.5434 65.5255 60.3114C64.6643 60.8682 63.6554 61.1534 62.6301 61.1284H62.631ZM29.7016 2.29104C28.7435 2.26704 27.8007 2.53104 26.9943 3.04849C21.5827 6.69366 25.7981 22.4245 36.3497 38.1197C41.4857 45.748 47.3476 52.2195 52.8542 56.3466C58.3609 60.4737 62.7318 61.7217 65.3239 59.9793C70.7268 56.3341 66.52 40.6033 55.9647 24.9119C46.8887 11.4313 36.0185 2.29104 29.7016 2.29104ZM62.7472 54.4131C62.5734 54.4121 62.3997 54.3958 62.2288 54.3651C58.3052 53.6518 47.4033 45.1941 39.8979 34.0598C31.444 21.5067 28.4257 8.53881 30.9333 6.72534C31.3317 6.44214 31.9144 6.37014 32.6882 6.5103C36.7193 7.22455 46.545 14.1981 53.771 24.933C61.8736 36.9677 67.7277 51.2076 63.5248 54.2019C63.2944 54.3517 63.0217 54.4256 62.7472 54.4131ZM32.0027 6.84151C31.7138 6.82327 31.4267 6.89623 31.1809 7.04887C28.852 8.73177 32.0546 21.6756 40.2406 33.8371C47.6778 44.883 58.4396 53.2688 62.2998 53.9705C62.6339 54.0685 62.9939 54.0358 63.305 53.8784C66.8416 51.3622 62.4237 38.4788 53.4514 25.1682C46.2733 14.5255 36.5916 7.62296 32.6277 6.91255C32.4213 6.87127 32.212 6.84631 32.0018 6.84055L32.0027 6.84151Z" fill="#3B7CD3"/>
        <g opacity="0.5">
            <path d="M63.5967 60.9289L96.1834 111.2L98.2887 110.343L65.6223 60.135L63.5967 60.9289Z" fill="#3B7CD3"/>
            <path d="M96.183 111.401C96.1494 111.401 96.1167 111.392 96.0879 111.376C96.0582 111.36 96.0332 111.337 96.0159 111.309L63.4292 61.0376C63.4129 61.0127 63.4033 60.9848 63.3994 60.956C63.3956 60.9272 63.3994 60.8975 63.409 60.8696C63.4177 60.8408 63.4321 60.8149 63.4522 60.7928C63.4724 60.7708 63.4973 60.7535 63.5252 60.7429L65.547 59.9451C65.5902 59.9298 65.6372 59.9288 65.6814 59.9423C65.7255 59.9557 65.7639 59.9836 65.7908 60.021L98.4524 110.233C98.4707 110.256 98.4812 110.284 98.486 110.313C98.4899 110.342 98.487 110.372 98.4764 110.4C98.4688 110.428 98.4534 110.453 98.4332 110.476C98.414 110.497 98.3891 110.513 98.3612 110.524L96.2559 111.381C96.2338 111.393 96.2089 111.4 96.1839 111.401H96.183ZM63.8996 61.0175L96.2588 110.946L97.9897 110.244L65.5422 60.3791L63.8996 61.0175Z" fill="#3B7CD3"/>
        </g>
        <g opacity="0.5">
            <path d="M56.1493 24.8008C45.5057 8.99028 32.4111 -0.819152 26.9035 2.86922C21.3968 6.5576 25.5594 22.4084 36.206 38.215C46.8526 54.0217 59.9443 63.8397 65.4509 60.1274C70.9576 56.415 66.7748 40.6122 56.1484 24.8008H56.1493ZM63.4426 54.0418C61.2134 55.6364 48.4011 46.282 40.0989 33.9487C31.7966 21.6154 28.6344 8.63123 31.067 6.88881C33.4997 5.14638 45.3146 12.7103 53.6168 25.0446C61.919 37.3779 67.3738 51.2271 63.4224 54.0428H63.4426V54.0418Z" fill="#3B7CD3"/>
            <path d="M62.632 61.1277C59.9843 61.1277 56.5513 59.6128 52.6152 56.6655C47.0721 52.5144 41.1786 46.0065 36.0185 38.3427C25.3287 22.464 21.1815 6.48557 26.7716 2.71751C32.3618 -1.05055 45.609 8.81456 56.2796 24.6894C66.9501 40.5642 71.1176 56.5426 65.5264 60.3107C64.6653 60.8675 63.6563 61.1526 62.631 61.1277H62.632ZM29.7025 2.2903C28.7444 2.2663 27.8017 2.53031 26.9953 3.04776C21.5837 6.69293 25.7991 22.4237 36.3506 38.119C41.4867 45.7473 47.3486 52.2187 52.8552 56.3458C58.3619 60.4729 62.7328 61.721 65.3248 59.9785C70.7278 56.3334 66.521 40.6026 55.9657 24.9111C46.8897 11.4306 36.0194 2.2903 29.7025 2.2903ZM62.7482 54.4124C62.5744 54.4114 62.4006 54.3951 62.2298 54.3644C58.3062 53.6511 47.4042 45.1934 39.8989 34.0591C31.445 21.506 28.4267 8.53808 30.9342 6.72461C31.3326 6.44141 31.9154 6.36941 32.6891 6.50957C36.7202 7.22382 46.546 14.1974 53.772 24.9322C61.8745 36.967 67.7287 51.2069 63.5258 54.2012C63.2954 54.3509 63.0227 54.4248 62.7482 54.4124ZM32.0037 6.84077C31.7147 6.82253 31.4277 6.89549 31.1819 7.04814C28.8529 8.73104 32.0555 21.6749 40.2416 33.8364C47.6788 44.8823 58.4406 53.268 62.3008 53.9698C62.6349 54.0677 62.9949 54.0351 63.3059 53.8776C66.8426 51.3614 62.4246 38.4781 53.4523 25.1674C46.2743 14.5247 36.5926 7.62223 32.6287 6.91181C32.4223 6.87053 32.213 6.84557 32.0027 6.83981L32.0037 6.84077Z" fill="#3B7CD3"/>
        </g>
        <path d="M60.2041 55.7292C54.8645 56.4146 47.6231 49.1934 40.1465 39.6393C31.107 28.075 28.6023 19.3821 27.7853 13.7641C26.9684 8.14606 31.0715 6.8894 31.0715 6.8894C28.6551 8.63183 31.7771 21.6199 40.0831 33.9493C48.3892 46.2788 61.1977 55.6255 63.4268 54.0424C64.0969 53.5634 64.4953 52.7704 64.6595 51.7173L64.7392 51.8286C64.7392 51.8286 65.5446 55.0341 60.205 55.7282L60.2041 55.7292Z" fill="#DEECFF"/>
        <path d="M59.4737 55.9755C54.8398 55.9755 48.616 50.7914 39.9864 39.758C32.8689 30.6666 28.8214 22.1724 27.5811 13.7905C26.744 8.07654 30.9623 6.70852 31.0064 6.697L32.1584 6.3418L31.1812 7.04741C28.8522 8.73031 32.0548 21.6742 40.2408 33.8366C47.678 44.8825 58.4398 53.2683 62.3 53.97C62.6341 54.068 62.9941 54.0353 63.3052 53.8788C63.9109 53.4478 64.2978 52.7105 64.4533 51.6852L64.5253 51.2148L64.9237 51.7774C64.9948 52.146 64.99 52.5243 64.9113 52.891C64.8325 53.2577 64.6809 53.6043 64.4649 53.9105C63.7352 54.979 62.3077 55.6568 60.2216 55.9285C59.9729 55.9601 59.7224 55.9765 59.4718 55.9765L59.4737 55.9755ZM30.441 7.39109C29.3485 8.01702 27.3901 9.72393 27.9766 13.7358C29.1968 22.0419 33.2279 30.4833 40.3022 39.5151C49.3101 51.0276 55.6308 56.1195 60.1765 55.5329C62.1387 55.2776 63.4703 54.6593 64.1365 53.6945C64.2441 53.5361 64.3333 53.3662 64.4034 53.1886C64.2008 53.5918 63.9023 53.9393 63.5336 54.2014C63.3378 54.3128 63.1218 54.3848 62.8981 54.4126C62.6744 54.4404 62.4469 54.4241 62.2299 54.3646C58.3064 53.6503 47.4044 45.1936 39.899 34.0593C32.1508 22.5353 28.9731 10.6599 30.441 7.39013V7.39109Z" fill="#3B7CD3"/>
        <path d="M66.4722 59.6968C66.2207 59.8034 65.9605 59.8898 65.6946 59.9522C69.4511 54.8996 65.9701 39.4203 56.1242 24.8012C45.6015 9.17026 32.6855 -0.595962 27.0713 2.76985C27.5004 2.1516 28.0409 1.61783 28.6659 1.19831C35.1892 -3.116 47.918 6.78079 58.4772 22.767C69.0364 38.7531 75.1248 55.4775 66.4722 59.6958V59.6968Z" fill="#DEECFF"/>
        <path d="M65.2556 60.2189L65.535 59.8205C69.0678 55.0713 66.0649 39.9021 55.9646 24.9009C45.5974 9.48888 32.6775 -0.364713 27.1747 2.92526L26.377 3.41582L26.927 2.61805C27.3782 1.98828 27.9418 1.44779 28.5898 1.02347C34.97 -3.18716 47.6106 5.90802 58.6805 22.6478C67.8083 36.449 72.1898 48.5672 70.4119 55.103C70.1661 56.1312 69.6938 57.0922 69.0304 57.9149C68.367 58.7376 67.528 59.4029 66.5756 59.8608L66.4883 59.6813L66.5756 59.8608C66.3049 59.9789 66.0256 60.072 65.7385 60.1402L65.2556 60.2199V60.2189ZM29.7063 1.89996C36.2142 1.89996 47.0806 10.9999 56.2958 24.6888C60.9336 31.5788 64.454 39.1197 66.2051 45.9147C67.7718 51.9954 67.7526 56.9289 66.1696 59.6007L66.3846 59.5171C67.2851 59.0803 68.0771 58.4487 68.704 57.6691C69.3318 56.8896 69.7783 55.9804 70.0125 55.007C71.7597 48.5989 67.3974 36.5882 58.333 22.8792C47.3878 6.33427 34.9662 -2.71291 28.7933 1.34603C28.4275 1.58892 28.0906 1.87212 27.7882 2.19181C28.4055 1.98444 29.0544 1.88556 29.7063 1.90092V1.89996Z" fill="#3B7CD3"/>
        <path d="M105.961 40.9268V41.9118C105.961 42.5694 104.582 42.965 104.582 42.965L101.606 42.387L98.4164 44.4808L90.2533 40.2059C89.2559 39.9687 88.3199 39.5243 87.5058 38.9012C86.6907 38.2791 86.0158 37.4929 85.5243 36.5924C83.8174 33.5059 87.4943 32.1302 87.4943 32.1302C87.4943 32.1302 86.8367 30.8822 88.4792 29.1715C88.8901 28.6924 89.4517 28.367 90.0719 28.2489C90.6921 28.1298 91.3334 28.2249 91.8931 28.5177C91.8931 28.5177 92.8771 26.4124 96.6182 26.3481C100.358 26.2847 99.7719 30.8822 99.7719 30.8822C100.326 30.4828 100.973 30.2313 101.651 30.1516C102.328 30.071 103.016 30.1651 103.648 30.4233C105.75 31.3401 104.565 34.6896 104.565 34.6896C104.565 34.6896 106.73 34.8173 107.719 37.4487C108.709 40.0801 105.961 40.9259 105.961 40.9259V40.9268Z" fill="#5E96FC"/>
        <path d="M98.4161 44.6679C98.3834 44.6679 98.3527 44.6602 98.3239 44.6439L90.2012 40.3968C89.1798 40.1539 88.2217 39.6988 87.3884 39.0604C86.5551 38.422 85.8648 37.6156 85.3647 36.6921C85.1246 36.3167 84.972 35.8924 84.9163 35.4498C84.8616 35.0072 84.9058 34.5589 85.0459 34.1355C85.5 32.9115 86.7759 32.2376 87.2549 32.0178C87.1234 31.5752 86.9919 30.4424 88.3513 29.0311C88.7689 28.5444 89.3314 28.2036 89.9564 28.0606C90.5814 27.9175 91.2361 27.978 91.8246 28.2334C92.1635 27.7073 93.4192 26.1837 96.6333 26.1281C97.0826 26.0954 97.5338 26.1636 97.9533 26.3277C98.3729 26.4919 98.7501 26.7482 99.0583 27.0775C99.9914 28.122 100.047 29.7252 100.019 30.475C100.576 30.1419 101.203 29.9451 101.851 29.9C102.498 29.8558 103.146 29.9652 103.743 30.2196C105.678 31.0654 105.08 33.7007 104.844 34.5061C105.466 34.6261 107.089 35.1445 107.922 37.3574C108.076 37.703 108.155 38.0774 108.155 38.4556C108.155 38.8339 108.076 39.2083 107.922 39.5539C107.536 40.2432 106.917 40.7721 106.176 41.0448V41.8905C106.176 42.6883 104.808 43.0867 104.652 43.1347C104.623 43.1424 104.591 43.1424 104.561 43.1347L101.642 42.5722L98.5437 44.6659C98.5024 44.6784 98.4573 44.6784 98.4161 44.6659V44.6679ZM90.5967 28.3783C90.2214 28.3851 89.8518 28.4715 89.5119 28.6299C89.1721 28.7883 88.8687 29.0167 88.622 29.3C87.1109 30.8705 87.6456 31.9794 87.6696 32.0274C87.6821 32.0523 87.6888 32.0811 87.6888 32.109C87.6888 32.1368 87.6821 32.1656 87.6696 32.1906C87.66 32.2165 87.6437 32.2405 87.6245 32.2597C87.6044 32.2789 87.5804 32.2933 87.5535 32.3029C87.5535 32.3029 85.8831 32.949 85.3963 34.269C85.2783 34.6376 85.2437 35.0264 85.2936 35.4104C85.3445 35.7935 85.4789 36.1612 85.6872 36.4866C86.1672 37.3583 86.8229 38.1206 87.613 38.7254C88.4031 39.3302 89.3103 39.7641 90.277 39.9993L90.3375 40.0195L98.4161 44.2704L101.471 42.2448C101.492 42.2304 101.516 42.2198 101.541 42.2141C101.567 42.2083 101.593 42.2083 101.618 42.2131L104.569 42.7834C104.967 42.6518 105.765 42.3053 105.765 41.9337V40.9488C105.765 40.9065 105.778 40.8643 105.803 40.8297C105.828 40.7952 105.864 40.7702 105.905 40.7568C106.597 40.5235 107.183 40.0483 107.552 39.4166C107.683 39.1209 107.751 38.8012 107.751 38.4777C107.751 38.1542 107.683 37.8345 107.552 37.5388C106.626 35.0706 104.656 34.9151 104.573 34.9112C104.542 34.9103 104.512 34.9016 104.486 34.8863C104.459 34.8709 104.437 34.8498 104.421 34.8239C104.404 34.7989 104.393 34.7692 104.389 34.7394C104.384 34.7087 104.387 34.678 104.397 34.6492C104.397 34.6175 105.494 31.459 103.6 30.6257C103 30.3857 102.35 30.2993 101.708 30.3752C101.067 30.451 100.454 30.6862 99.9271 31.0606C99.8945 31.0827 99.8551 31.0952 99.8158 31.0952C99.7764 31.0952 99.737 31.0837 99.7044 31.0606C99.6708 31.0414 99.6439 31.0126 99.6266 30.9771C99.6093 30.9425 99.6026 30.9032 99.6084 30.8648C99.6084 30.8408 99.8791 28.6039 98.7751 27.3713C98.5034 27.0862 98.1732 26.8654 97.8064 26.7242C97.4388 26.5831 97.0451 26.5246 96.6535 26.5543C93.0966 26.6138 92.1116 28.5876 92.104 28.6078C92.0915 28.6327 92.0742 28.6548 92.0531 28.6731C92.032 28.6913 92.007 28.7038 91.9801 28.7115C91.9552 28.722 91.9273 28.7278 91.9004 28.7278C91.8736 28.7278 91.8457 28.722 91.8208 28.7115C91.4521 28.5031 91.0355 28.3937 90.6121 28.3927L90.5967 28.3812V28.3783Z" fill="#5E96FC"/>
        <path d="M105.961 40.9274V41.9124C105.961 42.57 104.386 43.1402 104.386 43.1402L101.594 42.3866C101.594 42.3866 103.732 42.0199 104.31 41.6493C104.488 41.513 104.631 41.3373 104.728 41.1357C104.825 40.9341 104.874 40.7124 104.869 40.4887C105.661 39.7283 106.224 38.7616 106.495 37.697C106.815 36.1024 104.593 34.6902 104.593 34.6902C104.593 34.6902 106.758 34.8179 107.748 37.4493C108.737 40.0807 105.961 40.9264 105.961 40.9264V40.9274Z" fill="#3B7CD3"/>
        <path d="M90.8399 40.3165C90.8399 40.3165 86.9441 38.5501 88.3918 35.9542C89.4162 34.1158 89.9384 38.1191 91.2383 38.4023C92.5391 38.6855 91.8364 40.0333 91.8364 40.0333L90.8399 40.3165Z" fill="#3B7CD3"/>
        <path d="M109.522 55.3181C106.228 57.1642 103.328 53.7706 103.328 53.7706C103.208 53.0304 103.048 52.2969 102.85 51.5731C102.563 50.5363 102.145 49.3881 101.582 48.7343C101.084 48.1478 100.442 48.0719 99.6996 48.2236C98.6638 48.431 97.4273 49.0847 96.0871 49.4198C93.7907 50.0179 92.9411 46.2738 92.4986 45.3762C92.056 44.4786 91.2505 44.9778 90.062 43.6779C88.8735 42.3781 90.7523 38.0954 90.7523 38.0954C91.0825 38.3268 91.4368 38.5236 91.8083 38.682C92.6061 39.0804 95.2461 37.3418 96.2945 37.4417C97.3437 37.5415 97.5943 42.3867 98.4919 42.2264C99.3895 42.067 98.2126 40.2324 98.4602 39.0881C98.707 37.9438 101.399 36.3405 102.89 37.8919C105.378 40.4715 102.89 42.6334 102.89 42.6334L112.425 45.8236C112.425 45.8236 114.395 52.5869 109.522 55.3181Z" fill="#DEECFF"/>
        <path d="M107.5 56.064C105.059 56.064 103.197 53.927 103.177 53.8991C103.153 53.8703 103.136 53.8367 103.13 53.7993C103.011 53.0668 102.852 52.341 102.654 51.6258V51.598C102.436 50.612 102.02 49.6808 101.434 48.8581C101.036 48.3915 100.517 48.2523 99.7399 48.4117C99.1524 48.5538 98.5783 48.7429 98.0215 48.9781C97.4071 49.2277 96.7782 49.4408 96.1389 49.6165C94.0739 50.1551 93.1081 47.5554 92.5897 46.1557C92.4822 45.8686 92.391 45.6209 92.3151 45.4702C92.2335 45.3195 92.1203 45.1889 91.982 45.0872C91.8447 44.9854 91.6854 44.9163 91.5174 44.8836C90.8914 44.682 90.3317 44.3143 89.8988 43.819C88.6306 42.4394 90.4729 38.1923 90.5525 38.0128C90.5641 37.984 90.5833 37.959 90.6063 37.9389C90.6303 37.9187 90.6582 37.9043 90.6879 37.8966C90.7177 37.8899 90.7484 37.8899 90.7782 37.8966C90.8079 37.9034 90.8358 37.9168 90.8598 37.936C91.1785 38.1568 91.5193 38.345 91.8764 38.4986C92.2316 38.6656 93.2041 38.2595 94.0614 37.9005C94.9187 37.5414 95.7558 37.191 96.2944 37.239C96.9722 37.3024 97.2995 38.5946 97.6461 39.9626C97.8295 40.6922 98.1731 42.0401 98.4439 42.0401C98.4707 42.0391 98.4976 42.0314 98.5207 42.018C98.5447 42.0045 98.5648 41.9863 98.5792 41.9642C98.6954 41.7924 98.5792 41.2826 98.4477 40.8314C98.2528 40.2602 98.1866 39.6525 98.2528 39.0525C98.4122 38.3104 99.3847 37.4858 100.47 37.1786C100.905 37.025 101.376 36.9981 101.827 37.1008C102.277 37.2035 102.69 37.4301 103.017 37.7565C103.383 38.0925 103.676 38.5015 103.876 38.9565C104.075 39.4116 104.178 39.9031 104.178 40.4004C104.119 41.202 103.788 41.9604 103.241 42.5498L112.473 45.6363C112.503 45.6468 112.53 45.6651 112.553 45.6881C112.575 45.7121 112.592 45.7409 112.6 45.7716C112.624 45.8398 114.565 52.7145 109.613 55.4937C108.969 55.8624 108.242 56.0582 107.5 56.064ZM103.512 53.6716C103.863 54.07 106.463 56.7897 109.418 55.1308C113.78 52.6866 112.46 46.8085 112.245 45.9598L102.802 42.8254C102.768 42.8158 102.737 42.7966 102.714 42.7697C102.69 42.7438 102.673 42.7111 102.666 42.6766C102.659 42.642 102.662 42.6055 102.674 42.5719C102.686 42.5383 102.707 42.5086 102.734 42.4865C103.325 41.9325 103.691 41.1828 103.767 40.3773C103.764 39.9357 103.669 39.4999 103.489 39.0967C103.308 38.6935 103.046 38.3325 102.719 38.0358C102.438 37.7651 102.089 37.5779 101.709 37.4954C101.329 37.4128 100.932 37.4368 100.566 37.5654C99.5488 37.8525 98.7434 38.6099 98.6272 39.1408C98.5821 39.6804 98.6484 40.2228 98.8231 40.7354C98.9786 41.3412 99.1101 41.8634 98.9028 42.187C98.8576 42.2542 98.7991 42.3118 98.73 42.354C98.6618 42.3962 98.584 42.4241 98.5034 42.4337C97.8813 42.5297 97.6067 41.4449 97.2554 40.0653C97.0163 39.112 96.6496 37.673 96.255 37.6403C95.8595 37.6086 95.0022 37.9389 94.2131 38.2701C93.1839 38.6963 92.2191 39.1034 91.7007 38.8605C91.3983 38.7223 91.1036 38.5667 90.8194 38.3939C90.2809 39.6976 89.3324 42.6209 90.1858 43.5502C90.5765 43.9995 91.0844 44.3316 91.6527 44.5111C91.8678 44.563 92.0684 44.6609 92.2422 44.7991C92.415 44.9374 92.5551 45.1112 92.654 45.3089C92.7375 45.476 92.8297 45.7073 92.9449 46.0309C93.4556 47.4027 94.3043 49.6914 96.0237 49.2488C96.6477 49.0731 97.2611 48.8629 97.8621 48.619C98.441 48.3771 99.0381 48.1832 99.6477 48.0373C100.013 47.925 100.401 47.9192 100.769 48.021C101.137 48.1227 101.467 48.3282 101.721 48.6114C102.212 49.1855 102.651 50.1666 103.03 51.5308V51.5586C103.321 52.5474 103.476 53.4402 103.517 53.6841L103.512 53.6726V53.6716Z" fill="#3B7CD3"/>
        <path d="M99.2451 40.4957C99.1923 40.4957 99.1414 40.4746 99.104 40.4371C99.0665 40.3997 99.0454 40.3488 99.0454 40.296C99.0454 40.224 99.0771 38.5056 100.465 38.1388C100.76 38.0304 101.082 38.0236 101.38 38.1196C101.679 38.2156 101.936 38.4086 102.112 38.6688C102.124 38.6918 102.133 38.7168 102.136 38.7427C102.139 38.7686 102.136 38.7955 102.128 38.8204C102.121 38.8454 102.109 38.8694 102.092 38.8896C102.076 38.9097 102.055 38.927 102.032 38.9395C102.009 38.952 101.984 38.9596 101.958 38.9625C101.932 38.9654 101.905 38.9625 101.88 38.9558C101.855 38.9481 101.831 38.9366 101.811 38.9193C101.791 38.903 101.774 38.8828 101.761 38.8598C101.761 38.8396 101.426 38.2934 100.565 38.5209C99.4726 38.8118 99.4448 40.2835 99.4448 40.2998C99.4448 40.3257 99.439 40.3517 99.4294 40.3757C99.4189 40.3997 99.4045 40.4218 99.3862 40.44C99.367 40.4582 99.3449 40.4726 99.3209 40.4822C99.2969 40.4918 99.271 40.4966 99.2451 40.4957Z" fill="#3B7CD3"/>
        <path d="M101.123 40.68H101.083C100.828 40.6147 100.588 40.4995 100.378 40.3411C100.043 40.0896 100.293 39.7507 100.441 39.5434C100.566 39.4013 100.656 39.2323 100.704 39.049C100.704 39.001 100.704 38.9808 100.685 38.9693C100.495 38.8656 100.276 38.8281 100.063 38.8617C100.01 38.8656 99.9583 38.8483 99.917 38.8157C99.8767 38.7821 99.8498 38.735 99.8431 38.6822C99.8383 38.6294 99.8546 38.5766 99.8882 38.5363C99.9218 38.495 99.9698 38.4691 100.023 38.4633C100.359 38.4163 100.699 38.4989 100.976 38.6947C101.025 38.7475 101.062 38.8109 101.083 38.88C101.106 38.9491 101.11 39.0221 101.1 39.0941C101.045 39.3418 100.93 39.5722 100.765 39.7642C100.701 39.8381 100.65 39.9216 100.613 40.0118C100.78 40.1309 100.968 40.2192 101.167 40.2711C101.22 40.2768 101.269 40.3037 101.301 40.345C101.335 40.3863 101.35 40.4391 101.345 40.4919C101.339 40.5447 101.312 40.5936 101.271 40.6263C101.229 40.6599 101.177 40.6752 101.123 40.6695V40.681V40.68Z" fill="#3B7CD3"/>
        <path d="M94.0297 46.4895C93.9241 46.4914 93.8185 46.4809 93.7148 46.4578C93.663 46.4444 93.6188 46.4117 93.591 46.3666C93.5641 46.3215 93.5555 46.2668 93.567 46.2149C93.5737 46.189 93.5852 46.166 93.6006 46.1449C93.6169 46.1237 93.6361 46.1065 93.6592 46.093C93.6812 46.0796 93.7062 46.0709 93.7331 46.0671C93.759 46.0633 93.7849 46.0652 93.8108 46.0719C94.0432 46.1074 94.2812 46.0901 94.5059 46.021C94.7305 45.9519 94.9379 45.8328 95.1107 45.6735C95.7366 45.1388 95.3142 43.8312 95.3094 43.8197C95.2931 43.7698 95.2969 43.716 95.32 43.669C95.343 43.6219 95.3843 43.5864 95.4333 43.5682C95.4582 43.5595 95.4851 43.5557 95.512 43.5576C95.5379 43.5595 95.5638 43.5663 95.5878 43.5787C95.6118 43.5912 95.6329 43.6075 95.6502 43.6277C95.6675 43.6479 95.6809 43.6709 95.6886 43.6968C95.7088 43.7602 96.1994 45.2722 95.3699 45.9778C94.9993 46.3042 94.5232 46.4876 94.0297 46.4924V46.4895Z" fill="#3B7CD3"/>
        <path d="M92.5189 41.4572C92.7896 41.4572 93.0095 41.2374 93.0095 40.9666C93.0095 40.6959 92.7896 40.4761 92.5189 40.4761C92.2482 40.4761 92.0283 40.6959 92.0283 40.9666C92.0283 41.2374 92.2482 41.4572 92.5189 41.4572Z" fill="#3B7CD3"/>
        <path d="M103.265 45.0217C103.265 45.0217 103.449 47.0512 103.449 48.5229C103.423 49.4839 103.274 50.4381 103.006 51.3617C102.773 50.3546 102.339 49.4052 101.73 48.5709C101.495 48.3021 101.189 48.1043 100.847 48.0007C100.505 47.8979 100.141 47.8931 99.7959 47.9882C99.7959 47.9882 101.391 47.5658 102.229 46.553C102.646 46.095 102.995 45.5795 103.265 45.0217Z" fill="#3B7CD3"/>
        <path d="M149.96 45.8843C149.96 45.8843 158.951 47.4117 166.341 59.2352C173.73 71.0587 176.309 85.0193 176.309 85.0193L146.753 71.5733L149.96 45.8852V45.8843Z" fill="#DEECFF"/>
        <path d="M176.317 85.2177C176.29 85.2225 176.262 85.2225 176.234 85.2177L146.666 71.7516C146.627 71.7353 146.594 71.7064 146.573 71.669C146.552 71.6325 146.544 71.5893 146.55 71.548L149.74 45.86C149.744 45.8331 149.753 45.8072 149.766 45.7841C149.78 45.7611 149.798 45.7409 149.82 45.7246C149.864 45.6939 149.919 45.6805 149.972 45.6891C150.064 45.6891 159.143 47.3682 166.493 59.1274C173.841 70.8866 176.461 84.8433 176.493 84.9825C176.499 85.019 176.495 85.0555 176.482 85.0891C176.469 85.1227 176.446 85.1524 176.417 85.1745C176.389 85.1985 176.355 85.2139 176.317 85.2187V85.2177ZM146.977 71.452L176.043 84.6753C175.568 82.3626 172.781 69.9208 166.173 59.3376C159.566 48.7544 151.507 46.4417 150.131 46.123L146.977 71.452Z" fill="#3B7CD3"/>
        <path d="M100.593 75.1886C100.593 75.1886 98.7029 80.2248 92.0279 78.5064C85.3529 76.788 69.745 68.936 67.8029 72.9796C66.2995 76.1217 69.2544 77.9678 69.2544 77.9678C69.2544 77.9678 67.2211 80.9112 67.5763 83.7577C67.9315 86.6051 73.4746 99.2696 79.1675 99.8562C81.3813 100.088 83.0076 100.402 88.3913 99.1784L90.5322 95.0426C90.5322 95.0426 92.1911 98.4757 92.9245 98.3211C102.204 96.3627 112.269 93.1092 114.119 91.3187C117.054 88.479 117.257 85.4329 117.257 85.4329L100.593 75.1886Z" fill="#DEECFF"/>
        <path d="M82.0676 100.271C81.2477 100.262 80.4288 100.207 79.6147 100.106L79.1443 100.055C73.2508 99.445 67.7038 86.4099 67.3774 83.7814C67.0587 81.2451 68.5534 78.6857 68.972 78.0156C68.3499 77.549 66.2686 75.7067 67.6165 72.8958C69.0718 69.8612 77.302 72.9669 84.5636 75.7106C87.4312 76.7954 90.1461 77.8159 92.0728 78.3151C98.48 79.9654 100.322 75.3198 100.398 75.125C100.409 75.0962 100.424 75.0712 100.445 75.0501C100.466 75.029 100.491 75.0136 100.52 75.004C100.548 74.9944 100.578 74.9915 100.607 74.9944C100.636 74.9982 100.665 75.0088 100.69 75.0251L117.35 85.2694C117.382 85.2877 117.407 85.3146 117.424 85.3472C117.441 85.3798 117.448 85.4163 117.445 85.4528C117.445 85.5805 117.206 88.6065 114.255 91.4615C112.413 93.2443 102.664 96.4738 92.9656 98.5196C92.2437 98.6712 91.1234 96.6696 90.5291 95.4888L88.5669 99.2732C88.5534 99.2991 88.5342 99.3212 88.5121 99.3385C88.4891 99.3567 88.4632 99.3692 88.4353 99.3769C85.3614 100.071 83.5114 100.271 82.0676 100.271ZM70.4235 72.0337C69.2072 72.0337 68.3346 72.3332 67.9832 73.0667C66.5758 76.0063 69.2475 77.7247 69.3589 77.7967C69.3819 77.8101 69.4021 77.8284 69.4184 77.8504C69.4338 77.8725 69.4453 77.8975 69.4511 77.9234C69.4607 77.9781 69.4491 78.0338 69.4184 78.0789C69.4184 78.1077 67.4254 80.9983 67.7758 83.7334C68.1742 86.8563 73.7097 99.0898 79.1885 99.6601L79.6752 99.6965C81.6692 99.9116 83.3751 100.095 88.2683 98.99L90.3698 94.9387C90.3861 94.907 90.4111 94.8801 90.4427 94.8609C90.4735 94.8417 90.509 94.8312 90.5454 94.8312C90.5819 94.8312 90.6175 94.8417 90.6491 94.8619C90.6799 94.8811 90.7048 94.9099 90.7202 94.9425C91.5698 96.6975 92.5864 98.1884 92.8898 98.1135C102.36 96.1195 112.218 92.8689 113.984 91.163C115.598 89.6711 116.675 87.6896 117.05 85.5238L100.701 75.4677C100.227 76.4363 97.9539 80.2207 92.0008 78.6895C90.051 78.1874 87.3275 77.1583 84.4484 76.0696C79.5072 74.2235 73.6934 72.0337 70.4235 72.0337Z" fill="#3B7CD3"/>
        <path d="M203.657 168.977L211.851 173.101L228.787 168.977L227.806 154.447L215.045 151.109L203.657 168.977Z" fill="#DEECFF"/>
        <path d="M75.1169 156.308L61.7583 168.131L90.3898 202.692L105.295 186.785L75.1169 156.308Z" fill="#DEECFF"/>
        <path d="M90.389 202.891C90.3602 202.891 90.3323 202.884 90.3064 202.872C90.2814 202.859 90.2584 202.841 90.2411 202.819L61.6106 168.258C61.578 168.219 61.5617 168.168 61.5655 168.117C61.5693 168.066 61.5924 168.018 61.6308 167.983L74.9894 156.157C75.0268 156.122 75.0758 156.103 75.1267 156.103C75.1775 156.103 75.2275 156.122 75.2649 156.157L105.439 186.633C105.476 186.67 105.496 186.72 105.496 186.771C105.496 186.823 105.476 186.872 105.439 186.909L90.5368 202.815C90.5195 202.837 90.4965 202.855 90.4715 202.868C90.4456 202.881 90.4178 202.889 90.3899 202.891H90.389ZM62.0369 168.155L90.4005 202.393L105.015 186.789L75.1084 156.579L62.0369 168.155Z" fill="#3B7CD3"/>
        <path d="M88.5187 99.1307C88.4716 99.1327 88.4255 99.1173 88.391 99.0866C88.3699 99.0703 88.3535 99.0501 88.3401 99.0271C88.3276 99.004 88.3199 98.9791 88.318 98.9531C88.3151 98.9272 88.318 98.9004 88.3257 98.8754C88.3334 98.8504 88.3459 98.8274 88.3631 98.8072C88.3862 98.7755 90.959 95.5739 89.9577 93.3524C88.6502 90.3821 87.1343 90.7124 87.071 90.7287C87.0191 90.7412 86.9644 90.7316 86.9193 90.7047C86.8732 90.6769 86.8406 90.6327 86.8271 90.5809C86.8214 90.5559 86.8194 90.53 86.8233 90.5041C86.8271 90.4781 86.8358 90.4532 86.8492 90.4311C86.8626 90.409 86.8799 90.3898 86.901 90.3745C86.9222 90.3591 86.9462 90.3476 86.9711 90.3418C87.047 90.3217 88.8652 89.8868 90.3206 93.1892C91.4016 95.6373 88.7654 98.9195 88.6502 99.0587C88.6339 99.0789 88.6137 99.0952 88.5907 99.1077C88.5686 99.1202 88.5436 99.1279 88.5187 99.1307Z" fill="#3B7CD3"/>
        <path d="M82.306 93.4593C82.2532 93.466 82.1994 93.4516 82.1572 93.42C82.1149 93.3873 82.0881 93.3393 82.0804 93.2865C82.0737 93.2328 82.0881 93.18 82.1207 93.1377C82.1533 93.0955 82.2013 93.0676 82.2541 93.0609C82.2945 93.0609 86.5444 91.8647 87.3864 89.4282C87.7253 88.4509 87.4661 87.3863 86.6241 86.2381C83.1239 81.5407 78.5821 84.2921 78.3901 84.4121C78.368 84.4256 78.343 84.4352 78.3171 84.439C78.2912 84.4438 78.2653 84.4429 78.2394 84.4371C78.2134 84.4313 78.1894 84.4198 78.1683 84.4045C78.1472 84.3891 78.129 84.3699 78.1155 84.3478C78.0877 84.3027 78.079 84.2489 78.0915 84.1971C78.103 84.1462 78.1347 84.1011 78.1789 84.0723C78.2307 84.0406 83.2228 81.0022 86.9515 86.0029C87.8769 87.2432 88.1477 88.4356 87.7694 89.5434C86.8555 92.1835 82.545 93.3796 82.3617 93.4276C82.3463 93.443 82.3271 93.4536 82.306 93.4593Z" fill="#3B7CD3"/>
        <path d="M82.7049 83.6262C82.6645 83.6272 82.6252 83.6157 82.5916 83.5926C82.558 83.5696 82.532 83.537 82.5176 83.4986C82.508 83.4746 82.5033 83.4477 82.5042 83.4218C82.5052 83.3949 82.5109 83.3689 82.5215 83.3449C82.5321 83.3209 82.5474 83.2989 82.5666 83.2816C82.5858 83.2633 82.6089 83.2489 82.6338 83.2393C82.7999 83.1616 82.9477 83.0502 83.0697 82.9139C83.1916 82.7766 83.2847 82.6163 83.3433 82.4425C83.5785 81.7926 83.3989 80.8873 82.821 79.8227C80.0015 74.6386 69.4231 78.1081 69.3194 78.1436C69.2934 78.1522 69.2675 78.1561 69.2406 78.1542C69.2138 78.1522 69.1878 78.1455 69.1648 78.133C69.1408 78.1215 69.1197 78.1052 69.1024 78.085C69.0851 78.0649 69.0717 78.0409 69.064 78.0159C69.0486 77.966 69.0534 77.9113 69.0774 77.8642C69.1005 77.8181 69.1418 77.7817 69.1917 77.7644C69.6381 77.6175 80.1935 74.1758 83.1714 79.6307C83.8175 80.8268 84.0009 81.8156 83.7138 82.5856C83.6341 82.8102 83.5093 83.0157 83.3471 83.1904C83.1858 83.3651 82.99 83.5053 82.773 83.6022C82.7519 83.6147 82.7289 83.6224 82.7049 83.6262Z" fill="#3B7CD3"/>
        <path d="M88.5195 98.9305L90.5327 95.0425L92.5948 98.2125C92.5948 98.2125 91.0194 96.7532 90.5692 96.8089C90.118 96.8655 88.5195 98.9305 88.5195 98.9305Z" fill="#3B7CD3"/>
        <path d="M168.039 76.1896C168.039 76.1896 186.897 90.3249 192.631 112.225C198.365 134.125 198.828 138.483 198.828 138.483L219.939 151.136C219.939 151.136 219.711 159.111 214.89 163.713C211.779 166.613 208.309 169.105 204.566 171.125C204.566 171.125 174.886 159.442 169.874 151.136C164.862 142.83 160.044 135.637 160.044 135.637C160.044 135.637 103.676 196.431 100.829 197.121C99.236 197.549 97.5435 197.408 96.044 196.722L101.132 191.319C101.132 191.319 98.0456 180.855 90.2138 172.665C82.9129 165.029 70.6986 156.767 67.2608 159.614C63.823 162.461 130.508 97.2082 130.508 97.2082L128.914 84.416L164.06 73.2261L168.039 76.1896Z" fill="#5E96FC"/>
        <path d="M98.9218 197.552C97.8898 197.572 96.8674 197.351 95.9352 196.906C95.9102 196.89 95.8882 196.869 95.8709 196.844C95.8536 196.819 95.8421 196.791 95.8363 196.763C95.8315 196.732 95.8344 196.701 95.843 196.672C95.8526 196.644 95.867 196.617 95.8882 196.595L100.897 191.275C100.541 190.142 97.3435 180.429 90.0618 172.808C82.3702 164.765 70.5227 157.157 67.3805 159.773C67.2769 159.861 67.1136 159.992 66.9821 159.845C66.8506 159.697 66.8151 159.658 69.6452 156.811C71.2763 155.176 73.6811 152.779 76.7954 149.697C82.0428 144.513 89.3764 137.279 98.5916 128.227C113.744 113.337 129.12 98.292 130.293 97.1438L128.698 84.4514C128.692 84.4054 128.701 84.3583 128.726 84.319C128.751 84.2796 128.789 84.2508 128.833 84.2364L163.976 73.0426C164.006 73.033 164.039 73.0302 164.069 73.0359C164.101 73.0417 164.131 73.0551 164.156 73.0753L168.143 76.0292C168.335 76.1732 187.12 90.4563 192.81 112.173C198.054 132.135 198.903 137.579 199.015 138.375L220.037 150.973C220.068 150.991 220.093 151.018 220.11 151.05C220.127 151.08 220.135 151.116 220.133 151.152C220.133 151.232 219.846 159.266 215.025 163.865C211.896 166.773 208.413 169.274 204.658 171.31C204.631 171.321 204.602 171.327 204.573 171.327C204.545 171.327 204.517 171.321 204.49 171.31C203.294 170.831 174.691 159.506 169.707 151.24C165.228 143.819 160.853 137.203 160.024 135.959C155.976 140.325 103.695 196.63 100.873 197.313C100.234 197.469 99.5794 197.55 98.9218 197.552ZM96.3701 196.667C97.7775 197.211 99.3193 197.302 100.78 196.926C102.986 196.391 140.417 156.52 159.901 135.517C159.921 135.494 159.947 135.477 159.975 135.467C160.004 135.455 160.033 135.451 160.064 135.453C160.094 135.455 160.123 135.465 160.148 135.48C160.174 135.495 160.195 135.516 160.212 135.541C160.264 135.613 165.093 142.838 170.045 151.049C174.83 158.984 202.795 170.221 204.554 170.923C208.247 168.912 211.675 166.445 214.754 163.582C219.141 159.399 219.678 152.256 219.735 151.264L198.724 138.659C198.698 138.642 198.676 138.621 198.66 138.595C198.643 138.57 198.633 138.542 198.628 138.512C198.628 138.468 198.098 133.882 192.44 112.281C186.781 90.68 168.139 76.5198 167.92 76.3566L164.008 73.4612L129.12 84.5628L130.716 97.1918C130.718 97.2225 130.716 97.2532 130.704 97.282C130.693 97.3108 130.677 97.3377 130.655 97.3598C110.598 116.986 73.8001 153.078 68.0506 158.992C72.556 157.692 83.8294 165.715 90.3489 172.549C98.125 180.684 101.282 191.184 101.315 191.291C101.325 191.324 101.326 191.36 101.317 191.393C101.308 191.427 101.291 191.458 101.267 191.482L96.3701 196.667Z" fill="#3B7CD3"/>
        <path d="M160.047 135.645L138.595 102.44L157.136 138.775L160.047 135.645Z" fill="#3B7CD3"/>
        <path d="M211.851 163.921C211.811 163.92 211.772 163.907 211.74 163.884C211.532 163.745 190.884 149.853 182.745 144.119C174.607 138.384 154.832 81.3538 153.979 78.9288C153.962 78.8789 153.966 78.8251 153.989 78.7781C154.012 78.731 154.053 78.6955 154.102 78.6782C154.153 78.6609 154.208 78.6648 154.255 78.6878C154.303 78.7109 154.339 78.7512 154.358 78.8011C154.561 79.3915 174.894 138.097 182.977 143.799C191.06 149.501 211.755 163.423 211.962 163.562C212.007 163.591 212.037 163.638 212.048 163.69C212.058 163.742 212.048 163.796 212.018 163.841C211.999 163.866 211.973 163.887 211.944 163.901C211.915 163.914 211.883 163.922 211.851 163.921Z" fill="#3B7CD3"/>
        <path d="M158.993 97.4862C155.778 97.4344 152.617 96.6606 149.741 95.2215C143.76 92.3184 144.809 83.8732 144.821 83.7849C144.828 83.733 144.855 83.685 144.897 83.6534C144.939 83.6207 144.992 83.6073 145.044 83.614C145.096 83.6217 145.143 83.6495 145.175 83.6908C145.206 83.7321 145.222 83.7849 145.216 83.8367C145.216 83.9212 144.203 92.0871 149.917 94.8625C155.707 97.6782 160.241 97.0283 160.285 97.0196C160.338 97.012 160.392 97.0254 160.434 97.0571C160.477 97.0888 160.506 97.1368 160.514 97.1896C160.522 97.2424 160.509 97.2961 160.477 97.3393C160.445 97.3825 160.397 97.4113 160.345 97.419C159.895 97.4699 159.444 97.492 158.993 97.4862Z" fill="#3B7CD3"/>
        <path d="M170.934 78.5028L168.239 76.3456C165.642 76.312 163.05 76.5607 160.507 77.0868C158.117 77.5552 155.774 78.2359 153.504 79.121C150.933 80.1185 148.485 81.4107 146.211 82.9726C140.413 87.0623 135.136 91.846 130.501 97.2163L129.603 96.4186L128.008 95.0035L119.451 87.3944L117.249 85.4331C115.567 85.3141 113.918 84.9099 112.373 84.2369C110.626 83.5179 109 82.5396 107.548 81.3339C102.691 77.3258 100.586 75.1725 100.586 75.1725C100.586 75.1725 99.3375 67.0661 100.278 61.5038C100.362 61.0056 100.466 60.5227 100.586 60.0763C100.84 59.1508 101.084 58.3578 101.315 57.6839C101.498 57.1453 101.678 56.6788 101.845 56.2727C102.04 55.7984 102.258 55.3338 102.499 54.8807C102.699 54.4544 102.98 54.0714 103.324 53.7517C103.324 53.7517 107.364 57.9066 110.61 54.5255C113.856 51.1443 112.412 45.8162 112.412 45.8162C112.412 45.8162 113.708 44.0421 122.254 43.1243C130.799 42.2075 139.966 42.1317 144.437 42.6702L145.123 42.7701C145.794 42.868 146.46 43.0005 147.116 43.1685C149.968 43.8827 151.662 44.9829 152.025 45.4178C152.092 45.4744 152.146 45.5445 152.183 45.6242C152.22 45.7039 152.239 45.7903 152.239 45.8786C152.239 45.9669 152.22 46.0533 152.183 46.133C152.146 46.2127 152.092 46.2828 152.025 46.3394L150.143 45.8172C150.143 45.8172 150.318 46.3557 150.573 47.2409C151.302 49.7292 151.878 52.2589 152.301 54.8173C152.559 56.338 152.636 57.8845 152.527 59.4235C152.424 60.4209 152.34 61.2859 152.26 62.0357C151.977 64.7832 151.834 65.9717 151.834 65.9717L152.734 66.3701C156.519 68.0645 170.958 74.6925 171.629 77.368C172.003 78.8474 170.934 78.5047 170.934 78.5047V78.5028Z" fill="#92C1FF"/>
        <path d="M130.501 97.4158C130.452 97.4158 130.406 97.3995 130.369 97.3678L117.158 85.6278C115.479 85.502 113.832 85.0978 112.286 84.4316C110.52 83.7058 108.876 82.716 107.409 81.4968C102.623 77.5329 100.455 75.3441 100.434 75.3239C100.403 75.2951 100.383 75.2558 100.379 75.2126C100.379 75.1329 99.1346 67.0102 100.068 61.4834C100.159 60.965 100.263 60.4783 100.383 60.0357C100.633 59.1141 100.881 58.3048 101.116 57.6433C101.284 57.1528 101.459 56.6862 101.651 56.2196C101.844 55.7368 102.065 55.2654 102.312 54.8084C102.525 54.3553 102.827 53.9483 103.197 53.6122C103.237 53.5863 103.284 53.5748 103.331 53.5796C103.377 53.5844 103.42 53.6065 103.453 53.6401C103.473 53.6401 105.467 55.6772 107.7 55.6772C108.219 55.6686 108.732 55.5515 109.204 55.3336C109.677 55.1156 110.098 54.8027 110.444 54.4129C113.573 51.1508 112.21 45.9437 112.198 45.8918C112.19 45.863 112.188 45.8323 112.194 45.8025C112.199 45.7728 112.212 45.7449 112.229 45.7209C112.281 45.6451 113.673 43.8623 122.199 42.9494C131.242 41.9846 140.222 41.9922 144.425 42.4991C144.664 42.527 144.892 42.5586 145.119 42.5951C145.789 42.695 146.459 42.8303 147.113 42.9935C150.076 43.7395 151.77 44.88 152.125 45.3139C152.212 45.4041 152.278 45.5116 152.319 45.6288C152.362 45.7459 152.378 45.8716 152.368 45.9955C152.342 46.2009 152.236 46.3891 152.074 46.5177C152.05 46.5369 152.022 46.5494 151.992 46.5552C151.962 46.5609 151.932 46.559 151.902 46.5504L150.371 46.1241C150.446 46.3757 150.559 46.7424 150.694 47.2051C151.425 49.7088 152.003 52.2548 152.425 54.8295C152.692 56.3483 152.776 57.893 152.676 59.4309L152.592 60.268C152.529 60.9218 152.468 61.5122 152.413 62.0421C152.185 64.2271 152.05 65.4396 152.014 65.8342L152.783 66.1731C157.066 68.095 171.102 74.5703 171.789 77.3064C171.935 77.9083 171.888 78.3307 171.637 78.5621C171.525 78.6485 171.394 78.7061 171.255 78.7301C171.116 78.7541 170.973 78.7445 170.839 78.7013C170.816 78.6945 170.794 78.6821 170.776 78.6657L168.132 76.5527C165.572 76.5297 163.019 76.7774 160.511 77.29C158.134 77.7557 155.802 78.4325 153.545 79.3118C150.985 80.3035 148.549 81.589 146.288 83.1442C137.352 89.3286 130.716 97.2641 130.657 97.3438C130.639 97.3649 130.618 97.3822 130.594 97.3947C130.57 97.4072 130.543 97.4139 130.517 97.4158H130.501ZM100.777 75.0849C101.108 75.4161 103.269 77.5492 107.676 81.1858C109.117 82.38 110.73 83.3497 112.461 84.061C113.986 84.7138 115.61 85.1055 117.265 85.2217C117.313 85.2226 117.359 85.2409 117.393 85.2735L130.489 96.9214C131.474 95.7646 137.786 88.527 146.108 82.7928C148.398 81.229 150.859 79.9339 153.445 78.9326C155.725 78.0456 158.079 77.362 160.48 76.8916C163.04 76.3646 165.649 76.115 168.263 76.1457C168.305 76.1505 168.345 76.1659 168.379 76.1899L171.039 78.3192C171.101 78.3384 171.167 78.3432 171.233 78.3336C171.297 78.324 171.359 78.3 171.413 78.2635C171.545 78.1397 171.557 77.8325 171.45 77.3976C170.927 75.3719 161.42 70.4471 152.648 66.5312C152.074 66.272 151.746 66.1328 151.746 66.1328C151.708 66.1155 151.675 66.0857 151.655 66.0483C151.634 66.0108 151.625 65.9676 151.631 65.9254C151.631 65.9254 151.774 64.7091 152.057 61.9932C152.114 61.4632 152.17 60.8728 152.237 60.2191L152.321 59.3819C152.414 57.8766 152.332 56.3656 152.074 54.8804C151.652 52.3229 151.077 49.7923 150.351 47.304C150.096 46.4265 149.924 45.8841 149.924 45.8841C149.913 45.8505 149.911 45.8131 149.918 45.7785C149.926 45.744 149.943 45.7113 149.968 45.6854C149.994 45.6604 150.026 45.6422 150.06 45.6316C150.096 45.622 150.132 45.6211 150.168 45.6297L151.934 46.1241C151.977 46.0694 152.004 46.0051 152.014 45.9369C152.014 45.8668 152.002 45.7968 151.975 45.7315C151.948 45.6662 151.909 45.6076 151.859 45.5577C151.544 45.1593 149.896 44.086 147.073 43.3727C146.435 43.2134 145.773 43.0818 145.112 42.9743C144.888 42.9398 144.66 42.9081 144.429 42.8783C140.25 42.3762 131.307 42.3714 122.294 43.3324C114.913 44.1302 112.988 45.5654 112.649 45.8803C112.832 46.6781 113.801 51.5233 110.77 54.6731C110.389 55.1022 109.923 55.4468 109.401 55.6859C108.879 55.9249 108.313 56.0526 107.739 56.0603C105.666 56.0603 103.86 54.5166 103.353 54.0385C103.102 54.3275 102.885 54.6443 102.707 54.9841C102.468 55.4296 102.252 55.8875 102.061 56.356C101.874 56.8149 101.703 57.2728 101.538 57.7557C101.303 58.4296 101.06 59.2274 100.813 60.148C100.694 60.5791 100.594 61.0533 100.506 61.5554C99.6127 66.7635 100.666 74.3274 100.777 75.0974V75.0849Z" fill="#3B7CD3"/>
        <path d="M141.234 60.2024L151.833 65.949L152.287 61.7701L141.234 60.2034V60.2024Z" fill="#3B7CD3"/>
        <path d="M108.716 74.0439L117.254 85.4326L114.702 85.0217L108.716 74.0439Z" fill="#3B7CD3"/>
        <path d="M149.961 45.884L151.902 46.3544C151.902 46.3544 153.381 45.7438 150.974 44.6676C149.291 43.914 149.961 45.884 149.961 45.884Z" fill="#3B7CD3"/>
        <path d="M168.039 76.19C168.039 76.19 170.296 78.6342 170.934 78.5026C171.572 78.3711 172.075 77.8489 171.365 76.8274C170.727 75.9106 168.039 76.19 168.039 76.19Z" fill="#3B7CD3"/>
        <path d="M95.9722 196.738C95.9722 196.738 99.4455 197.966 100.829 197.137C103.341 195.594 101.156 190.908 101.156 190.908L95.9722 196.738Z" fill="#3B7CD3"/>
        <path d="M66.962 159.674C66.8602 160 66.8334 160.345 66.8833 160.683C66.9332 161.02 67.0599 161.342 67.2529 161.624L67.9153 162.684L71.5442 159.47C70.8069 159.216 70.035 159.074 69.2555 159.048C68.4702 159.172 67.7022 159.382 66.963 159.674H66.962Z" fill="#3B7CD3"/>
        <path d="M146.91 43.3837C146.266 43.3895 145.629 43.2531 145.043 42.9853C145 42.9642 144.967 42.9287 144.947 42.8845C144.928 42.8403 144.925 42.7914 144.94 42.7453C144.953 42.6992 144.983 42.6598 145.023 42.6339C145.064 42.608 145.112 42.5984 145.16 42.6061C145.834 42.7098 146.506 42.8413 147.153 43.0045C147.2 43.016 147.242 43.0439 147.27 43.0832C147.298 43.1226 147.31 43.1715 147.304 43.2195C147.299 43.2666 147.277 43.3107 147.243 43.3434C147.209 43.376 147.164 43.3962 147.117 43.3991L146.91 43.3827V43.3837Z" fill="#3B7CD3"/>
        <path d="M122.039 52.0764C120.954 52.0783 119.906 51.6751 119.102 50.9465C118.298 50.2178 117.794 49.2146 117.69 48.1346C117.585 47.0546 117.887 45.9736 118.537 45.1038C119.185 44.234 120.136 43.6379 121.202 43.4315C122.048 43.2635 122.926 43.3499 123.723 43.6811C124.52 44.0113 125.202 44.572 125.681 45.29C126.16 46.0081 126.414 46.852 126.414 47.715C126.413 48.5781 126.156 49.4219 125.675 50.1391C125.356 50.6172 124.946 51.0281 124.467 51.3449C123.987 51.6617 123.449 51.8815 122.884 51.989C122.606 52.0476 122.323 52.0764 122.039 52.0764ZM122.039 43.7463C121.771 43.7444 121.504 43.7703 121.242 43.8222C120.602 43.9499 120.004 44.2321 119.501 44.6459C118.997 45.0596 118.603 45.5905 118.354 46.1925C118.105 46.7944 118.008 47.4491 118.071 48.0971C118.134 48.7461 118.357 49.3682 118.719 49.9106C119.081 50.452 119.57 50.8965 120.145 51.2047C120.72 51.5119 121.361 51.6732 122.013 51.6741C122.664 51.6741 123.306 51.5148 123.881 51.2076C124.456 50.9004 124.947 50.4568 125.308 49.9164C125.707 49.3202 125.935 48.6271 125.971 47.9109C126.006 47.1947 125.847 46.4824 125.51 45.8497C125.172 45.2171 124.67 44.6872 124.057 44.3176C123.442 43.947 122.739 43.7502 122.023 43.7473H122.039V43.7463Z" fill="#3B7CD3"/>
        <path d="M139.368 54.6369C138.58 54.6341 137.808 54.4181 137.133 54.011C136.458 53.6049 135.905 53.0232 135.534 52.3271C135.164 51.6321 134.988 50.8497 135.025 50.0625C135.064 49.2753 135.314 48.513 135.751 47.8573C136.065 47.3716 136.473 46.9539 136.951 46.6266C137.428 46.3002 137.966 46.0717 138.533 45.9555C139.1 45.8384 139.683 45.8355 140.252 45.9469C140.819 46.0583 141.36 46.281 141.84 46.6026C142.321 46.9242 142.732 47.3389 143.052 47.8208C143.371 48.3037 143.591 48.8442 143.699 49.4125C143.807 49.9809 143.801 50.5655 143.681 51.131C143.561 51.6974 143.33 52.2331 143 52.7092C142.682 53.1883 142.271 53.5982 141.792 53.9169C141.313 54.2357 140.774 54.4555 140.21 54.563C139.932 54.6129 139.65 54.6369 139.368 54.635V54.6369ZM139.368 46.3107C138.685 46.3146 138.014 46.4951 137.421 46.8339C136.827 47.1728 136.332 47.6605 135.984 48.2471C135.634 48.8346 135.442 49.5018 135.427 50.1854C135.411 50.8689 135.573 51.5438 135.895 52.1467C136.219 52.7486 136.691 53.2574 137.269 53.6232C137.846 53.9889 138.507 54.1992 139.19 54.2337C139.873 54.2683 140.552 54.1253 141.164 53.82C141.774 53.5137 142.296 53.0558 142.678 52.4884C143.077 51.8923 143.307 51.1991 143.343 50.482C143.38 49.7649 143.22 49.0516 142.882 48.4189C142.544 47.7853 142.04 47.2564 141.425 46.8877C140.81 46.5181 140.106 46.3232 139.388 46.3242L139.368 46.3127V46.3107Z" fill="#3B7CD3"/>
        <path d="M148.963 68.9355C148.175 68.9326 147.403 68.7166 146.728 68.3105C146.052 67.9035 145.5 67.3217 145.13 66.6266C144.758 65.9316 144.583 65.1492 144.621 64.362C144.659 63.5748 144.91 62.8125 145.347 62.1568C145.361 62.1347 145.38 62.1165 145.402 62.1021C145.424 62.0877 145.449 62.0781 145.475 62.0723C145.501 62.0675 145.528 62.0675 145.554 62.0733C145.579 62.0791 145.604 62.0896 145.625 62.105C145.647 62.1194 145.666 62.1376 145.681 62.1597C145.695 62.1818 145.705 62.2058 145.71 62.2317C145.714 62.2576 145.714 62.2835 145.709 62.3095C145.703 62.3354 145.692 62.3594 145.677 62.3805C145.093 63.2541 144.88 64.3245 145.085 65.3565C145.29 66.3876 145.896 67.2958 146.77 67.8795C147.644 68.4641 148.714 68.6772 149.745 68.4718C150.777 68.2673 151.685 67.6606 152.269 66.787C152.344 66.6718 152.412 66.5633 152.468 66.4596L151.755 66.1447C151.715 66.1274 151.684 66.0977 151.663 66.0602C151.641 66.0228 151.634 65.9796 151.639 65.9374C151.639 65.9374 151.783 64.721 152.066 62.0061C152.071 61.9533 152.097 61.9043 152.138 61.8707C152.179 61.8371 152.232 61.8208 152.285 61.8266C152.338 61.8323 152.386 61.8583 152.42 61.8986C152.454 61.9389 152.47 61.9927 152.464 62.0455C152.237 64.2305 152.101 65.4429 152.066 65.8375L152.835 66.1764C152.883 66.1985 152.919 66.2388 152.938 66.2878C152.957 66.3367 152.956 66.3914 152.935 66.4394C152.845 66.6382 152.739 66.8292 152.616 67.0097C152.296 67.4887 151.885 67.8987 151.406 68.2164C150.927 68.5352 150.39 68.755 149.824 68.8635C149.54 68.9153 149.252 68.9393 148.963 68.9355Z" fill="#3B7CD3"/>
        <path d="M113.915 64.207C112.944 64.2051 111.999 63.8787 111.234 63.2787C110.469 62.6787 109.926 61.8406 109.691 60.8969C109.456 59.9532 109.544 58.9586 109.939 58.0696C110.336 57.1816 111.016 56.4511 111.874 55.9941C112.733 55.5371 113.72 55.3797 114.677 55.5477C115.635 55.7157 116.509 56.1986 117.161 56.9195C117.813 57.6405 118.206 58.5592 118.276 59.5298C118.346 60.5004 118.09 61.4652 117.548 62.2735C117.149 62.8697 116.608 63.3584 115.975 63.6953C115.341 64.0323 114.633 64.2089 113.915 64.207ZM113.915 55.8846C113.231 55.8837 112.557 56.0603 111.961 56.3973C111.364 56.7343 110.864 57.22 110.512 57.8066C110.159 58.3941 109.964 59.0623 109.947 59.7477C109.929 60.4332 110.09 61.11 110.412 61.7148C110.735 62.3196 111.208 62.8294 111.787 63.1961C112.366 63.5628 113.029 63.7731 113.714 63.8076C114.398 63.8412 115.08 63.6972 115.691 63.3891C116.304 63.0809 116.825 62.6191 117.205 62.0499C117.606 61.4537 117.835 60.7606 117.872 60.0434C117.907 59.3263 117.748 58.614 117.41 57.9804C117.072 57.3467 116.569 56.8178 115.954 56.4491C115.338 56.0805 114.633 55.8846 113.915 55.8856V55.8846Z" fill="#3B7CD3"/>
        <path d="M131.242 66.7897C130.382 66.7916 129.54 66.5363 128.826 66.0562C128.108 65.5762 127.55 64.8946 127.219 64.0969C126.89 63.2991 126.805 62.4216 126.974 61.5759C127.143 60.7291 127.559 59.9525 128.17 59.3429C128.78 58.7333 129.559 58.3185 130.405 58.1515C131.252 57.9844 132.129 58.0718 132.926 58.403C133.723 58.7342 134.403 59.2939 134.882 60.013C135.36 60.731 135.615 61.5749 135.614 62.438C135.614 63.301 135.356 64.1439 134.875 64.861C134.475 65.4572 133.934 65.9449 133.3 66.2818C132.667 66.6188 131.96 66.7935 131.242 66.7916V66.7897ZM131.242 58.4673C130.292 58.4654 129.372 58.8053 128.651 59.4254C127.93 60.0446 127.456 60.9029 127.315 61.8437C127.173 62.7836 127.375 63.7436 127.882 64.5471C128.39 65.3516 129.169 65.9458 130.078 66.2233C130.988 66.5007 131.967 66.4412 132.836 66.0572C133.705 65.6732 134.408 64.9897 134.815 64.1305C135.223 63.2712 135.309 62.2949 135.055 61.3781C134.803 60.4613 134.229 59.6664 133.439 59.1374C132.794 58.7025 132.036 58.4702 131.258 58.4673H131.242Z" fill="#3B7CD3"/>
        <path d="M140.835 81.0814C139.709 81.0804 138.627 80.6465 137.812 79.8689C136.997 79.0922 136.513 78.0314 136.459 76.9063C136.404 75.7821 136.784 74.679 137.521 73.8275C138.257 72.975 139.293 72.4393 140.413 72.3299C141.534 72.2204 142.654 72.5459 143.541 73.239C144.428 73.9331 145.014 74.9411 145.18 76.0547C145.344 77.1683 145.073 78.3031 144.424 79.2237C143.775 80.1434 142.798 80.779 141.693 80.9978C141.411 81.0535 141.124 81.0814 140.835 81.0814ZM140.835 72.7513C140.568 72.7513 140.301 72.7782 140.038 72.831C139.398 72.9577 138.8 73.2409 138.296 73.6537C137.791 74.0675 137.398 74.5984 137.147 75.2013C136.898 75.8032 136.801 76.4579 136.864 77.1069C136.928 77.7559 137.151 78.3789 137.513 78.9204C137.875 79.4628 138.365 79.9073 138.94 80.2145C139.515 80.5217 140.158 80.683 140.81 80.683C141.461 80.683 142.103 80.5217 142.678 80.2145C143.253 79.9073 143.743 79.4628 144.105 78.9204C144.496 78.3223 144.719 77.6301 144.751 76.9168C144.783 76.2035 144.623 75.4941 144.287 74.8643C143.951 74.2336 143.453 73.7046 142.842 73.3331C142.232 72.9616 141.533 72.7609 140.819 72.7513H140.835Z" fill="#3B7CD3"/>
        <path d="M153.505 79.3199C153.475 79.3199 153.446 79.3113 153.419 79.2978C153.392 79.2844 153.369 79.2652 153.351 79.2412C153.333 79.2181 153.32 79.1903 153.314 79.1615C153.307 79.1318 153.307 79.102 153.314 79.0732C153.431 78.55 153.644 78.0537 153.943 77.6092C154.591 76.653 155.591 75.9906 156.725 75.7669C157.857 75.5432 159.033 75.7755 159.996 76.413C160.229 76.5724 160.446 76.7509 160.646 76.9477C160.672 76.9727 160.69 77.0053 160.7 77.0399C160.709 77.0754 160.709 77.1119 160.698 77.1464C160.688 77.181 160.668 77.2117 160.641 77.2357C160.615 77.2597 160.582 77.276 160.547 77.2828C158.169 77.7474 155.838 78.4242 153.581 79.3046C153.557 79.3132 153.531 79.319 153.505 79.3199ZM157.576 76.0741C156.923 76.0731 156.281 76.2325 155.705 76.5397C155.129 76.846 154.637 77.2904 154.275 77.8328C154.074 78.1285 153.916 78.4511 153.804 78.79C155.844 78.0162 157.943 77.4066 160.081 76.9679C159.981 76.8872 159.877 76.8124 159.774 76.7404C159.123 76.3055 158.359 76.0731 157.576 76.0741Z" fill="#3B7CD3"/>
        <path d="M101.323 57.8985C101.292 57.9005 101.263 57.8928 101.236 57.8784C101.191 57.8582 101.155 57.8218 101.136 57.7766C101.117 57.7315 101.116 57.6806 101.132 57.6345C101.299 57.144 101.475 56.6774 101.666 56.2108C101.685 56.1657 101.72 56.1283 101.764 56.1072C101.808 56.086 101.858 56.0812 101.906 56.0947C101.953 56.1091 101.993 56.1398 102.019 56.1811C102.044 56.2233 102.054 56.2732 102.045 56.3212C101.957 56.8454 101.769 57.3475 101.491 57.8006C101.474 57.8294 101.449 57.8534 101.419 57.8707C101.39 57.887 101.357 57.8966 101.323 57.8966V57.8985Z" fill="#3B7CD3"/>
        <path d="M106.735 74.973C105.763 74.9702 104.819 74.6438 104.054 74.0437C103.289 73.4447 102.745 72.6066 102.511 71.6629C102.277 70.7192 102.364 69.7246 102.76 68.8366C103.154 67.9486 103.835 67.218 104.693 66.7611C105.551 66.3041 106.537 66.1467 107.494 66.3137C108.452 66.4807 109.327 66.9627 109.979 67.6836C110.632 68.4046 111.024 69.3234 111.095 70.292C111.166 71.2616 110.912 72.2274 110.372 73.0357C110.052 73.5138 109.641 73.9247 109.162 74.2425C108.683 74.5612 108.145 74.781 107.58 74.8895C107.301 74.9452 107.018 74.973 106.735 74.974V74.973ZM106.754 66.643C106.487 66.6411 106.219 66.667 105.957 66.7188C105.189 66.8724 104.485 67.2497 103.931 67.8037C103.378 68.3576 103.001 69.0622 102.848 69.8302C102.694 70.5973 102.772 71.3931 103.071 72.117C103.369 72.8408 103.875 73.4601 104.525 73.8959C104.958 74.1858 105.444 74.3874 105.954 74.4892C106.464 74.5909 106.989 74.5919 107.5 74.4911C108.011 74.3893 108.497 74.1887 108.93 73.8997C109.363 73.6117 109.735 73.2402 110.024 72.8072C110.603 71.9317 110.812 70.8632 110.608 69.8331C110.403 68.804 109.801 67.8968 108.932 67.3083C108.29 66.8686 107.532 66.6295 106.754 66.6228V66.643Z" fill="#3B7CD3"/>
        <path d="M124.059 77.5252C122.934 77.5243 121.851 77.0903 121.036 76.3127C120.222 75.5361 119.737 74.4752 119.683 73.3501C119.629 72.2259 120.009 71.1229 120.745 70.2713C121.482 69.4188 122.517 68.8832 123.638 68.7737C124.758 68.6643 125.879 68.9897 126.766 69.6829C127.653 70.376 128.239 71.385 128.404 72.4986C128.568 73.6122 128.298 74.7469 127.649 75.6666C127 76.5873 126.022 77.2228 124.917 77.4417C124.634 77.4974 124.347 77.5252 124.059 77.5252ZM124.08 69.1952C123.812 69.1952 123.545 69.222 123.282 69.2748C122.645 69.4054 122.05 69.6905 121.549 70.1053C121.049 70.52 120.657 71.0518 120.41 71.6538C120.164 72.2547 120.069 72.9085 120.134 73.5556C120.199 74.2026 120.423 74.8237 120.785 75.3633C121.147 75.9038 121.635 76.3463 122.21 76.6535C122.783 76.9598 123.423 77.121 124.073 77.122C124.723 77.122 125.363 76.9636 125.938 76.6583C126.512 76.353 127.002 75.9114 127.366 75.3719C127.756 74.7738 127.979 74.0826 128.011 73.3684C128.044 72.6551 127.883 71.9466 127.547 71.3158C127.211 70.6851 126.712 70.1571 126.102 69.7856C125.493 69.4131 124.794 69.2124 124.08 69.2028V69.1952Z" fill="#3B7CD3"/>
        <path d="M100.283 61.7217C100.233 61.7217 100.185 61.7035 100.147 61.6699C100.121 61.6468 100.102 61.619 100.092 61.5863C100.08 61.5547 100.077 61.5201 100.083 61.4865C100.175 60.9719 100.279 60.4852 100.398 60.0426C100.649 59.122 100.897 58.3117 101.132 57.6503C101.299 57.1597 101.475 56.6932 101.666 56.2266C101.86 55.7437 102.081 55.2723 102.328 54.8154C102.344 54.7866 102.367 54.7616 102.395 54.7443C102.422 54.7261 102.453 54.7155 102.486 54.7126C102.519 54.7098 102.552 54.7155 102.582 54.728C102.613 54.7414 102.639 54.7616 102.66 54.7875C103.239 55.5104 103.572 56.3984 103.61 57.3239C103.649 58.2493 103.391 59.1623 102.875 59.9313C102.278 60.8241 101.371 61.4654 100.331 61.7294L100.283 61.7217ZM102.532 55.2695C102.368 55.592 102.201 55.9597 102.033 56.3619C101.866 56.7642 101.675 57.2788 101.511 57.7616C101.275 58.4356 101.032 59.2334 100.785 60.154C100.694 60.4929 100.61 60.8596 100.534 61.2465C101.351 60.9643 102.052 60.4209 102.528 59.699C102.973 59.0461 103.211 58.2743 103.212 57.4842C103.212 56.6941 102.975 55.9223 102.532 55.2685V55.2695Z" fill="#3B7CD3"/>
        <path d="M133.659 91.813C132.976 91.814 132.303 91.6556 131.692 91.3494C131.083 91.0431 130.553 90.5977 130.146 90.0495C129.74 89.5013 129.467 88.8648 129.351 88.1919C129.235 87.5189 129.279 86.8287 129.478 86.1758C129.677 85.523 130.028 84.9259 130.499 84.4334C130.972 83.94 131.553 83.5646 132.196 83.3371C132.841 83.1096 133.528 83.0366 134.206 83.124C134.883 83.2104 135.53 83.4552 136.095 83.8372C137.051 84.4862 137.714 85.4846 137.937 86.6184C138.162 87.7512 137.93 88.9272 137.291 89.8911C136.973 90.3692 136.561 90.7801 136.082 91.0978C135.603 91.4166 135.065 91.6364 134.501 91.7449C134.222 91.7938 133.941 91.8169 133.659 91.813ZM133.659 83.4868C132.974 83.4868 132.3 83.6625 131.703 83.9985C131.107 84.3355 130.608 84.8213 130.255 85.4088C129.902 85.9963 129.707 86.6645 129.69 87.3499C129.673 88.0344 129.833 88.7122 130.155 89.316C130.478 89.9209 130.951 90.4316 131.53 90.7983C132.109 91.165 132.772 91.3753 133.457 91.4089C134.141 91.4434 134.823 91.2985 135.435 90.9903C136.046 90.6831 136.568 90.2213 136.949 89.6511C137.348 89.0559 137.578 88.3618 137.615 87.6456C137.65 86.9285 137.491 86.2152 137.153 85.5826C136.815 84.9489 136.312 84.42 135.697 84.0504C135.08 83.6817 134.377 83.4868 133.659 83.4868Z" fill="#3B7CD3"/>
        <path d="M152.277 55.0354H152.25C151.515 54.9365 150.819 54.6523 150.226 54.2088C149.633 53.7662 149.162 53.1787 148.859 52.5038C148.555 51.828 148.43 51.0868 148.492 50.3495C148.555 49.6123 148.805 48.9028 149.219 48.2884C149.538 47.8036 149.953 47.3898 150.439 47.0721C150.465 47.0548 150.496 47.0442 150.526 47.0413C150.557 47.0385 150.589 47.0413 150.619 47.0519C150.647 47.0634 150.673 47.0807 150.695 47.1037C150.716 47.1268 150.733 47.1537 150.742 47.1834C151.473 49.6871 152.051 52.2331 152.472 54.8079C152.478 54.8376 152.476 54.8693 152.468 54.8981C152.459 54.9269 152.443 54.9538 152.421 54.9759C152.383 55.0143 152.331 55.0354 152.277 55.0354ZM150.435 47.5626C150.09 47.8266 149.79 48.1454 149.55 48.5082C149.187 49.0468 148.963 49.667 148.895 50.314C148.829 50.9601 148.923 51.6129 149.169 52.2149C149.416 52.8168 149.805 53.3477 150.307 53.7624C150.807 54.1771 151.401 54.4622 152.038 54.5928C151.634 52.2254 151.1 49.882 150.435 47.5741V47.5626Z" fill="#3B7CD3"/>
        <path d="M119.454 87.5901C119.406 87.5901 119.359 87.5738 119.323 87.5421L117.122 85.5808C117.098 85.5645 117.078 85.5433 117.064 85.5193C117.049 85.4953 117.039 85.4685 117.036 85.4397C117.032 85.4118 117.035 85.383 117.044 85.3561C117.052 85.3293 117.066 85.3043 117.085 85.2832C117.104 85.2621 117.127 85.2448 117.153 85.2333C117.179 85.2217 117.207 85.216 117.236 85.216C117.264 85.2169 117.292 85.2227 117.317 85.2342C117.343 85.2467 117.366 85.264 117.385 85.2851L119.446 87.1197C119.593 86.967 119.726 86.8029 119.845 86.6291C120.423 85.7536 120.632 84.6851 120.428 83.655C120.223 82.6259 119.621 81.7186 118.753 81.1302C116.855 79.8581 114.626 80.2009 113.461 81.9279C113.431 81.9721 113.385 82.0019 113.333 82.0124C113.282 82.022 113.228 82.0124 113.184 81.9817C113.139 81.9519 113.11 81.9058 113.099 81.854C113.09 81.8022 113.1 81.7484 113.13 81.7042C114.422 79.7746 116.883 79.3877 118.975 80.7874C119.933 81.4354 120.594 82.4348 120.818 83.5676C121.042 84.7014 120.81 85.8774 120.172 86.8403C120.008 87.089 119.819 87.3194 119.606 87.5267C119.586 87.5469 119.563 87.5632 119.537 87.5738C119.511 87.5853 119.482 87.5911 119.454 87.5901Z" fill="#3B7CD3"/>
        <path d="M117.253 85.6328C115.547 85.5224 113.873 85.1182 112.304 84.4357C112.256 84.4155 112.218 84.3771 112.198 84.3281C112.178 84.2801 112.178 84.2254 112.197 84.1765C112.206 84.1525 112.221 84.1304 112.239 84.1121C112.257 84.0929 112.279 84.0785 112.303 84.068C112.328 84.0584 112.354 84.0526 112.38 84.0536C112.406 84.0536 112.432 84.0584 112.456 84.0689C113.982 84.7217 115.606 85.1144 117.261 85.2296C117.315 85.2296 117.365 85.2507 117.402 85.2882C117.44 85.3256 117.461 85.3765 117.461 85.4293C117.461 85.4821 117.44 85.533 117.402 85.5704C117.365 85.6069 117.315 85.628 117.261 85.628L117.253 85.6328Z" fill="#3B7CD3"/>
        <path d="M129.603 96.617C129.579 96.617 129.555 96.6132 129.531 96.6045C129.508 96.5949 129.488 96.5825 129.471 96.5652L127.875 95.153C127.841 95.1213 127.819 95.0771 127.813 95.0301C127.807 94.9821 127.818 94.9341 127.844 94.8938C127.87 94.8535 127.909 94.8237 127.956 94.8103C128.002 94.7968 128.052 94.8016 128.095 94.8227C128.256 94.8995 128.41 94.9869 128.558 95.0858C129.034 95.4103 129.441 95.826 129.754 96.3098C129.781 96.3501 129.793 96.3981 129.786 96.4461C129.779 96.4941 129.755 96.5383 129.718 96.569C129.685 96.5968 129.645 96.6132 129.603 96.617Z" fill="#3B7CD3"/>
        <path d="M226.765 151.535C226.765 151.535 229.636 149.968 232.575 150.379C235.514 150.79 239.39 155.786 239.685 164.958C239.98 174.129 239.976 190.108 235.59 193.405C230.27 197.349 213.961 199.574 203.207 196.46C192.452 193.346 197.978 187.125 197.978 187.125L223.424 174.42L226.765 151.535Z" fill="#5E96FC"/>
        <path d="M214.962 198.111C210.807 198.111 206.667 197.66 203.131 196.635C199.33 195.534 197.101 193.923 196.499 191.85C195.769 189.318 197.728 187.065 197.811 186.985L197.871 186.937L223.228 174.264L226.59 151.384L226.677 151.34C226.797 151.272 229.641 149.744 232.607 150.144C235.45 150.542 239.585 155.383 239.893 164.897C240.423 181.427 239.011 191.053 235.697 193.512C232.092 196.217 223.496 198.111 214.962 198.111ZM198.082 187.268C197.867 187.528 196.252 189.557 196.886 191.734C197.448 193.672 199.589 195.195 203.266 196.252C213.973 199.354 230.198 197.145 235.474 193.229C237.679 191.594 240.163 185.362 239.51 164.945C239.21 155.654 235.271 150.941 232.571 150.562C230.011 150.203 227.467 151.399 226.988 151.651L223.627 174.536L223.535 174.584L198.082 187.268Z" fill="#3B7CD3"/>
        <path d="M231.123 187.475C226.106 192.343 214.982 191.862 208.23 190.633C201.479 189.405 198.106 188.799 197.958 187.108C197.811 185.417 200.526 180.153 201.862 178.303C204.223 175.041 207.497 174.048 208.964 173.606C210.431 173.163 209.307 171.819 209.307 171.819C209.307 171.819 215.133 170.962 218.231 168.027C218.714 167.58 219.127 167.062 219.455 166.492C219.968 165.573 220.403 164.612 220.755 163.621C221.84 160.599 222.044 157.731 221.796 156.376V156.324C221.786 156.255 221.772 156.187 221.752 156.12V156.072C221.314 154.533 219.966 152.392 219.966 152.392C219.966 152.392 222.553 150.665 225.644 151.112C228.962 151.586 232.076 158.182 233.62 165.754C235.294 174.096 235.083 183.63 231.123 187.475Z" fill="#92C1FF"/>
        <path d="M217.123 191.658C214.129 191.648 211.14 191.37 208.195 190.829L207.797 190.753C201.017 189.501 197.927 188.931 197.771 187.124C197.616 185.318 200.459 179.923 201.715 178.188C204.108 174.858 207.486 173.849 208.921 173.403C209.049 173.383 209.169 173.331 209.271 173.252C209.374 173.173 209.455 173.071 209.507 172.953C209.523 172.768 209.501 172.583 209.443 172.407C209.385 172.232 209.291 172.069 209.169 171.932C209.146 171.905 209.13 171.873 209.123 171.839C209.117 171.804 209.121 171.769 209.132 171.736C209.146 171.703 209.168 171.674 209.195 171.652C209.223 171.629 209.257 171.614 209.291 171.609C209.347 171.609 215.09 170.727 218.108 167.868C218.581 167.437 218.986 166.936 219.304 166.381C219.813 165.472 220.244 164.523 220.593 163.542C221.654 160.579 221.872 157.759 221.626 156.4V156.36C221.615 156.294 221.601 156.229 221.582 156.165V156.1C221.159 154.621 219.835 152.512 219.819 152.484C219.792 152.44 219.782 152.387 219.794 152.336C219.806 152.285 219.835 152.241 219.878 152.213C221.616 151.136 223.665 150.674 225.697 150.901C229.345 151.423 232.416 158.709 233.839 165.702C235.363 173.192 235.618 183.428 231.307 187.607C228.193 190.614 222.694 191.658 217.123 191.658ZM209.671 171.964C209.78 172.125 209.857 172.305 209.896 172.497C209.935 172.688 209.936 172.884 209.898 173.076C209.829 173.259 209.714 173.421 209.565 173.548C209.415 173.674 209.237 173.76 209.045 173.797C207.645 174.197 204.375 175.202 202.046 178.42C200.687 180.298 198.039 185.497 198.178 187.093C198.306 188.596 201.707 189.222 207.876 190.362L208.275 190.438C215.851 191.834 226.327 191.862 231.004 187.332C235.196 183.264 234.924 173.188 233.42 165.798C231.765 157.688 228.556 151.734 225.613 151.312C223.065 150.945 220.828 152.11 220.234 152.46C220.934 153.579 221.507 154.774 221.941 156.021V156.081C221.961 156.153 221.977 156.226 221.989 156.3V156.34C222.248 157.755 222.028 160.659 220.939 163.693C220.583 164.694 220.144 165.664 219.628 166.592C219.291 167.185 218.867 167.722 218.367 168.187C215.652 170.759 210.915 171.74 209.671 171.964Z" fill="#3B7CD3"/>
        <path d="M233.595 165.755L228.411 164.695C223.842 163.749 222.155 157.804 221.816 156.392V156.341L221.772 156.137V156.089C221.333 154.55 219.985 152.408 219.985 152.408C219.985 152.408 222.574 150.682 225.664 151.129C228.937 151.587 232.052 158.183 233.595 165.755Z" fill="#3B7CD3"/>
        <path d="M233.851 166.01L228.352 164.873C223.618 163.897 221.9 157.66 221.601 156.42L221.572 156.289C221.561 156.246 221.551 156.201 221.545 156.157V156.113C221.122 154.634 219.798 152.525 219.782 152.496L219.679 152.333L219.842 152.225C221.58 151.148 223.629 150.686 225.66 150.913C229.309 151.436 232.379 158.721 233.803 165.715L233.851 166.01ZM220.213 152.453C220.914 153.571 221.487 154.766 221.92 156.013V156.073C221.925 156.113 221.933 156.153 221.944 156.193L221.976 156.332C222.263 157.528 223.922 163.549 228.415 164.479L233.32 165.491C231.653 157.517 228.483 151.723 225.577 151.303C223.044 150.941 220.835 152.101 220.213 152.456V152.453Z" fill="#3B7CD3"/>
        <path d="M221.509 171.848C219.867 171.681 218.81 169.619 218.232 168.028C218.715 167.581 219.128 167.063 219.456 166.493C219.969 165.574 220.403 164.613 220.756 163.622C221.633 166.002 223.691 172.072 221.509 171.848Z" fill="#3B7CD3"/>
        <path d="M221.633 172.051C221.589 172.055 221.545 172.055 221.501 172.051C219.774 171.875 218.674 169.807 218.06 168.104L218.012 167.98L218.108 167.888C218.581 167.457 218.985 166.955 219.304 166.4C219.813 165.492 220.244 164.543 220.592 163.562L220.776 163.047L220.967 163.562C221.904 166.082 223.331 170.488 222.387 171.712C222.296 171.825 222.181 171.914 222.051 171.972C221.919 172.031 221.776 172.059 221.633 172.051ZM218.478 168.063C219.065 169.659 220.074 171.481 221.541 171.653C221.631 171.669 221.724 171.661 221.811 171.63C221.897 171.598 221.974 171.544 222.031 171.473C222.602 170.74 222.12 168.04 220.739 164.215C220.419 165.038 220.044 165.837 219.615 166.608C219.303 167.15 218.916 167.646 218.467 168.08L218.478 168.063Z" fill="#3B7CD3"/>
        <path d="M222.798 179.675C222.798 179.651 222.319 177.37 217.374 175.03C212.429 172.689 209.064 173.781 209.032 173.793L208.9 173.419C209.041 173.371 212.398 172.222 217.541 174.667C222.685 177.111 223.172 179.508 223.192 179.607L222.798 179.675Z" fill="#3B7CD3"/>
        <path d="M200.635 194.27H200.527C200.354 194.225 200.199 194.131 200.077 194C199.956 193.87 199.874 193.707 199.841 193.533C199.722 193.097 199.704 192.64 199.789 192.197C199.968 191.133 200.587 190.378 201.172 190.482C201.344 190.529 201.499 190.623 201.62 190.753C201.741 190.883 201.822 191.045 201.855 191.22C201.977 191.655 201.996 192.112 201.911 192.555C201.739 193.549 201.192 194.27 200.635 194.27ZM201.061 190.865C200.75 190.865 200.324 191.411 200.18 192.253C200.107 192.635 200.121 193.03 200.224 193.405C200.307 193.672 200.443 193.844 200.591 193.868C200.909 193.919 201.368 193.366 201.516 192.484C201.593 192.102 201.578 191.708 201.476 191.331C201.392 191.064 201.257 190.893 201.105 190.869L201.061 190.865Z" fill="#3B7CD3"/>
        <path d="M214.914 196.364H214.798C214.627 196.317 214.471 196.222 214.351 196.09C214.23 195.96 214.15 195.797 214.116 195.623C213.994 195.188 213.975 194.73 214.06 194.286C214.244 193.225 214.858 192.476 215.448 192.576C215.619 192.623 215.775 192.716 215.895 192.846C216.016 192.977 216.097 193.139 216.13 193.314C216.25 193.749 216.269 194.206 216.186 194.649C216.118 195.097 215.948 195.523 215.687 195.893C215.604 196.027 215.491 196.138 215.356 196.221C215.222 196.302 215.07 196.351 214.914 196.364ZM215.336 192.959C215.021 192.959 214.599 193.501 214.455 194.346C214.381 194.728 214.394 195.122 214.495 195.499C214.579 195.766 214.714 195.938 214.866 195.962C215.017 195.986 215.201 195.873 215.368 195.647C215.59 195.327 215.734 194.961 215.791 194.577C215.866 194.195 215.852 193.802 215.751 193.425C215.667 193.158 215.532 192.986 215.38 192.962L215.336 192.959Z" fill="#3B7CD3"/>
        <path d="M229.839 194.656C229.677 194.645 229.52 194.595 229.382 194.512C229.242 194.427 229.126 194.312 229.041 194.174C228.792 193.799 228.625 193.374 228.551 192.93C228.478 192.485 228.499 192.029 228.615 191.594C228.647 191.419 228.73 191.258 228.851 191.127C228.973 190.997 229.128 190.905 229.3 190.86C229.89 190.756 230.497 191.514 230.676 192.579C230.76 193.023 230.74 193.48 230.616 193.915C230.583 194.09 230.5 194.251 230.379 194.38C230.257 194.51 230.103 194.603 229.931 194.648C229.9 194.654 229.869 194.657 229.839 194.656ZM229.44 191.247H229.396C229.244 191.275 229.109 191.443 229.025 191.71C228.929 192.086 228.912 192.478 228.976 192.861C229.04 193.245 229.183 193.61 229.396 193.935C229.564 194.162 229.751 194.278 229.898 194.25C230.046 194.222 230.186 194.058 230.27 193.787C230.371 193.413 230.388 193.02 230.318 192.639C230.162 191.81 229.739 191.247 229.428 191.247H229.44Z" fill="#3B7CD3"/>
        <path d="M237.221 183.527C236.962 183.527 236.705 183.492 236.455 183.424C235.49 183.173 234.861 182.571 235.012 182.025C235.163 181.478 235.992 181.255 236.958 181.51C237.923 181.766 238.553 182.364 238.401 182.91C238.297 183.304 237.831 183.527 237.221 183.527ZM236.204 181.805C235.766 181.805 235.446 181.94 235.407 182.124C235.335 182.395 235.805 182.842 236.563 183.038C237.321 183.232 237.951 183.077 238.023 182.806C238.094 182.535 237.623 182.088 236.862 181.892C236.647 181.836 236.426 181.807 236.204 181.805Z" fill="#3B7CD3"/>
        <path d="M237.432 171.473H237.264C236.343 171.421 235.669 170.986 235.693 170.456C235.714 170.304 235.779 170.16 235.879 170.044C235.98 169.926 236.112 169.841 236.26 169.798C236.61 169.654 236.99 169.593 237.368 169.623C238.293 169.675 238.963 170.109 238.939 170.636C238.919 170.789 238.855 170.934 238.754 171.051C238.654 171.168 238.522 171.254 238.373 171.297C238.074 171.418 237.755 171.479 237.432 171.473ZM237.205 170.014C236.932 170.007 236.66 170.056 236.407 170.157C236.212 170.245 236.088 170.364 236.08 170.476C236.08 170.723 236.575 171.03 237.277 171.07C237.591 171.094 237.907 171.047 238.201 170.931C238.401 170.843 238.521 170.723 238.528 170.612C238.528 170.364 238.034 170.057 237.332 170.018H237.193L237.205 170.014Z" fill="#3B7CD3"/>
        <path d="M236.184 161.129H236.016C235.092 161.077 234.421 160.643 234.445 160.116C234.469 159.59 235.195 159.231 236.12 159.283C237.041 159.335 237.715 159.77 237.687 160.296C237.667 160.448 237.604 160.592 237.504 160.71C237.404 160.827 237.273 160.914 237.125 160.958C236.826 161.078 236.506 161.136 236.184 161.129ZM235.953 159.674C235.323 159.674 234.856 159.905 234.844 160.132C234.832 160.36 235.338 160.69 236.04 160.727C236.357 160.75 236.674 160.703 236.969 160.586C237.165 160.499 237.288 160.383 237.297 160.272C237.297 160.021 236.802 159.714 236.101 159.677L235.953 159.674Z" fill="#3B7CD3"/>
        <path d="M232.248 153.186H232.081C231.156 153.134 230.486 152.699 230.51 152.169C230.531 152.016 230.595 151.873 230.695 151.756C230.796 151.639 230.928 151.555 231.076 151.512C231.427 151.368 231.807 151.307 232.185 151.336C233.11 151.388 233.78 151.823 233.756 152.349C233.736 152.502 233.671 152.646 233.571 152.763C233.471 152.881 233.338 152.967 233.189 153.01C232.891 153.132 232.571 153.192 232.248 153.186ZM232.021 151.727C231.748 151.72 231.478 151.769 231.224 151.87C231.024 151.958 230.904 152.077 230.897 152.189C230.897 152.436 231.391 152.743 232.093 152.784C232.408 152.808 232.725 152.76 233.018 152.643C233.217 152.556 233.337 152.436 233.345 152.325C233.345 152.077 232.85 151.771 232.149 151.73L232.021 151.727Z" fill="#3B7CD3"/>
        <path d="M6.91338 141.638C6.91338 141.638 4.32902 141.403 2.59907 143.125C1.55746 144.157 0.771205 145.418 0.301758 146.806L62.7517 229.88C62.7517 229.88 65.3475 230.514 70.6554 224.935C71.3793 224.148 72.0456 223.31 72.6494 222.427L81.2262 214.659L19.7449 138.776L6.91242 141.638H6.91338Z" fill="#5E96FC"/>
        <path d="M63.022 230.091C62.9145 230.093 62.8079 230.084 62.7033 230.063L62.6313 230.043L62.5919 229.987L0.0825195 146.85L0.11036 146.754C0.586527 145.331 1.3891 144.039 2.45472 142.982C4.14914 141.303 6.57414 141.411 6.8967 141.439L19.8204 138.556L19.9001 138.652L81.5042 214.683L72.8075 222.559C72.2036 223.443 71.5374 224.282 70.8135 225.071C66.4512 229.641 63.8793 230.091 63.022 230.091ZM62.8588 229.693C63.2851 229.732 65.8253 229.721 70.5111 224.792C71.2349 224.014 71.9012 223.186 72.5041 222.311L72.5367 222.276L80.9743 214.635L19.6649 138.998L6.92454 141.838H6.89286C6.86886 141.838 4.3805 141.634 2.73792 143.265C1.75102 144.256 0.995493 145.453 0.525086 146.771L62.8588 229.693Z" fill="#3B7CD3"/>
        <path d="M88.7145 214.487C81.5604 219.642 72.88 222.358 72.6601 222.423C72.7561 222.299 75.4836 218.474 59.314 195.765C57.1396 192.713 55.0496 189.822 53.0451 187.092C39.8622 169.148 30.0566 157.887 21.0133 150.278C10.1632 141.159 6.9126 141.637 6.9126 141.637C6.9126 141.637 14.3652 130.073 27.2255 131.545C40.0859 133.016 58.3963 160.1 62.8267 160.865C67.2572 161.632 68.0108 162.588 67.1295 163.382C66.7829 163.685 67.7631 164.542 69.4067 165.806C71.6473 167.54 75.1207 170.049 78.0833 172.984C78.5431 173.444 78.9876 173.91 79.4158 174.383C82.9409 178.303 88.5273 187.942 91.7769 193.747C93.3321 196.539 94.3488 198.449 94.3488 198.449C94.3488 198.449 96.1911 196.814 97.3076 199.118C98.4241 201.423 95.9645 209.267 88.7145 214.487Z" fill="#92C1FF"/>
        <path d="M72.6598 222.622C72.6281 222.622 72.5964 222.615 72.5676 222.6C72.5398 222.586 72.5148 222.564 72.4966 222.538C72.4726 222.503 72.4591 222.462 72.4591 222.42C72.4591 222.378 72.4726 222.337 72.4966 222.303C72.5244 222.266 75.1404 218.351 59.1418 195.881C57.048 192.938 54.9389 190.023 52.8777 187.211C39.7543 169.347 29.8854 158.007 20.8727 150.43C10.302 141.542 6.95637 141.837 6.91605 141.832C6.87861 141.838 6.84021 141.832 6.80661 141.816C6.77205 141.801 6.74325 141.775 6.72309 141.743C6.70293 141.712 6.69141 141.675 6.69141 141.637C6.69141 141.599 6.70197 141.562 6.72117 141.53C6.79701 141.41 14.3936 129.858 27.229 131.345C35.4995 132.306 45.9426 143.68 53.5708 151.986C57.7421 156.503 61.3306 160.403 62.858 160.666C65.8446 161.181 67.4037 161.81 67.6427 162.597C67.683 162.77 67.6696 162.954 67.6043 163.12C67.539 163.287 67.4238 163.429 67.276 163.53C67.204 163.848 68.9666 165.204 69.5445 165.647L70.7407 166.572C73.373 168.501 75.8758 170.6 78.2336 172.856C78.7002 173.323 79.1514 173.797 79.5699 174.26C83.1383 178.224 88.861 188.121 91.9551 193.664C93.2031 195.9 94.1122 197.591 94.4156 198.157C94.8831 197.806 95.4707 197.653 96.0505 197.731C96.6409 197.846 97.1228 198.289 97.4896 199.043C98.6502 201.436 96.1782 209.355 88.8331 214.643C81.6148 219.826 72.8066 222.582 72.7193 222.618C72.6991 222.623 72.679 222.625 72.6588 222.622H72.6598ZM7.26358 141.45C8.42039 141.586 12.248 142.647 21.1204 150.123C30.1522 157.7 40.0413 169.088 53.1849 186.976C55.2509 189.768 57.36 192.707 59.4576 195.65C73.0841 214.79 73.3788 220.584 72.991 222.099C74.8016 221.501 82.2945 218.85 88.5787 214.327C95.8921 209.059 98.0934 201.253 97.1085 199.226C97.0144 198.966 96.8608 198.732 96.6601 198.541C96.4595 198.35 96.2166 198.209 95.9516 198.13C95.198 197.983 94.4684 198.613 94.4607 198.616C94.4377 198.637 94.4108 198.651 94.382 198.66C94.3532 198.668 94.3225 198.669 94.2927 198.664C94.263 198.659 94.2351 198.647 94.2111 198.629C94.1862 198.611 94.167 198.588 94.1535 198.561C94.1535 198.561 93.1205 196.619 91.5855 193.863C88.499 188.333 82.7927 178.467 79.2474 174.532C78.849 174.073 78.3901 173.606 77.9274 173.143C75.5916 170.898 73.1119 168.808 70.5026 166.887L69.3064 165.966C67.4843 164.563 66.8939 163.972 66.8776 163.549C66.8747 163.489 66.8853 163.43 66.9093 163.374C66.9323 163.32 66.9688 163.27 67.0139 163.23C67.2251 163.043 67.3086 162.867 67.2654 162.708C67.1858 162.429 66.5915 161.707 62.811 161.062C61.1405 160.775 57.6864 157.014 53.3203 152.256C45.7438 143.998 35.344 132.685 27.2213 131.745C15.7607 130.421 8.55575 139.668 7.28374 141.45H7.26358Z" fill="#3B7CD3"/>
        <path d="M62.7512 229.881C65.8156 227.635 54.4087 206.863 37.2744 183.486C20.14 160.109 3.76507 142.978 0.700707 145.225C-2.36366 147.47 9.04323 168.242 26.1776 191.619C43.3119 214.997 59.6869 232.126 62.7503 229.881H62.7512Z" fill="#92C1FF"/>
        <path d="M62.0784 230.274C59.5181 230.274 54.0114 225.09 49.5973 220.496C42.6832 213.263 34.309 203.047 26.0183 191.734C17.7286 180.422 10.5064 169.359 5.6814 160.591C2.23975 154.323 -1.44095 146.539 0.573165 145.063C2.58728 143.588 8.90321 149.45 13.8434 154.606C20.7584 161.84 29.1317 172.055 37.4262 183.368C45.7207 194.681 52.9343 205.743 57.7631 214.512C61.2086 220.78 64.8893 228.563 62.8714 230.039C62.64 230.202 62.3607 230.285 62.0775 230.274H62.0784ZM1.38726 145.219C1.18469 145.211 0.985011 145.269 0.817008 145.382C-0.530852 146.371 1.41894 151.986 6.04045 160.4C10.8252 169.172 18.055 180.198 26.3371 191.503C34.6191 202.807 42.9818 213.004 49.8843 220.213C56.5161 227.156 61.2845 230.705 62.6448 229.716C64.0042 228.727 62.0429 223.112 57.4252 214.699C52.6165 205.926 45.4068 194.901 37.1248 183.595C28.8427 172.29 20.48 162.094 13.5977 154.885C7.66863 148.712 3.24585 145.219 1.38822 145.219H1.38726Z" fill="#3B7CD3"/>
        <path d="M5.31802 156.508C5.26521 156.52 5.20953 156.51 5.16345 156.482C5.11737 156.453 5.08473 156.407 5.07225 156.354C5.05977 156.301 5.06937 156.245 5.09817 156.199C5.12697 156.153 5.17305 156.121 5.22585 156.109L10.8688 153.162C10.8919 153.15 10.9178 153.143 10.9437 153.141C10.9696 153.138 10.9965 153.141 11.0215 153.149C11.0464 153.157 11.0695 153.17 11.0896 153.187C11.1098 153.204 11.1261 153.224 11.1386 153.247C11.1511 153.271 11.1578 153.296 11.1607 153.322C11.1626 153.349 11.1607 153.375 11.152 153.4C11.1443 153.425 11.1309 153.448 11.1146 153.468C11.0973 153.488 11.0771 153.505 11.0531 153.517L5.41114 156.463C5.38522 156.486 5.35354 156.502 5.31898 156.508H5.31802Z" fill="#3B7CD3"/>
        <path d="M10.9611 166.664C10.9255 166.662 10.891 166.653 10.8603 166.634C10.8295 166.616 10.8036 166.59 10.7854 166.56C10.7614 166.513 10.7556 166.459 10.77 166.409C10.7854 166.358 10.819 166.315 10.8651 166.289L18.6325 162.014C18.6556 162.001 18.6805 161.994 18.7065 161.991C18.7324 161.988 18.7593 161.99 18.7842 161.997C18.8092 162.005 18.8332 162.018 18.8533 162.034C18.8735 162.05 18.8908 162.07 18.9033 162.093C18.9167 162.117 18.9253 162.141 18.9282 162.167C18.9311 162.193 18.9301 162.22 18.9225 162.245C18.9157 162.271 18.9033 162.294 18.8869 162.315C18.8706 162.335 18.8505 162.353 18.8274 162.365L11.0561 166.64C11.0263 166.655 10.9937 166.664 10.9601 166.664H10.9611Z" fill="#3B7CD3"/>
        <path d="M16.8032 176.294C16.7696 176.294 16.7369 176.285 16.7081 176.269C16.6793 176.253 16.6544 176.23 16.6361 176.202C16.6073 176.158 16.5977 176.104 16.6092 176.052C16.6208 176 16.6515 175.955 16.6956 175.927L25.4683 170.237C25.4903 170.222 25.5143 170.212 25.5403 170.207C25.5662 170.202 25.5931 170.203 25.618 170.208C25.6439 170.213 25.6679 170.224 25.6891 170.239C25.7102 170.255 25.7284 170.274 25.7428 170.296C25.7716 170.34 25.7822 170.394 25.7716 170.446C25.7611 170.497 25.7303 170.543 25.6871 170.572L16.9107 176.258C16.879 176.28 16.8416 176.292 16.8032 176.294Z" fill="#3B7CD3"/>
        <path d="M24.458 186.838C24.4253 186.838 24.3946 186.828 24.3658 186.814C24.337 186.799 24.313 186.777 24.2948 186.751C24.266 186.706 24.2545 186.654 24.2641 186.602C24.2737 186.551 24.3034 186.505 24.3466 186.475L33.0194 180.465C33.0636 180.437 33.1173 180.425 33.1692 180.435C33.221 180.444 33.2671 180.474 33.2978 180.517C33.3266 180.561 33.3381 180.614 33.3285 180.666C33.3189 180.717 33.2892 180.763 33.246 180.793L24.5809 186.802C24.5444 186.827 24.5012 186.84 24.457 186.838H24.458Z" fill="#3B7CD3"/>
        <path d="M30.9782 196.463C30.936 196.463 30.8947 196.449 30.8611 196.424C30.8275 196.398 30.8025 196.364 30.79 196.323C30.7776 196.282 30.7785 196.239 30.792 196.199C30.8054 196.159 30.8313 196.125 30.8668 196.101L39.7988 190.144C39.8439 190.114 39.8977 190.103 39.9495 190.114C40.0014 190.124 40.0475 190.155 40.0782 190.199C40.107 190.242 40.1175 190.296 40.107 190.348C40.0964 190.4 40.0657 190.445 40.0225 190.474L31.0828 196.432C31.0521 196.453 31.0166 196.463 30.9792 196.463H30.9782Z" fill="#3B7CD3"/>
        <path d="M37.4062 204.212C37.3726 204.212 37.34 204.204 37.3102 204.188C37.2804 204.171 37.2564 204.148 37.2392 204.119C37.2104 204.075 37.2008 204.021 37.2123 203.97C37.2238 203.918 37.2545 203.873 37.2987 203.844L46.0713 198.333C46.0934 198.319 46.1183 198.309 46.1442 198.305C46.1702 198.3 46.197 198.301 46.223 198.307C46.2489 198.312 46.2729 198.324 46.294 198.339C46.3151 198.355 46.3334 198.375 46.3468 198.398C46.3737 198.443 46.3823 198.497 46.3708 198.547C46.3593 198.599 46.3276 198.643 46.2834 198.672L37.5262 204.171C37.4916 204.196 37.4494 204.21 37.4062 204.212Z" fill="#3B7CD3"/>
        <path d="M42.7184 211.37C42.6819 211.369 42.6464 211.359 42.6157 211.34C42.5849 211.321 42.56 211.294 42.5427 211.261C42.5302 211.238 42.5225 211.213 42.5196 211.187C42.5168 211.161 42.5197 211.136 42.5273 211.111C42.535 211.086 42.5475 211.063 42.5648 211.042C42.5821 211.022 42.6022 211.006 42.6253 210.994L50.385 206.648C50.4321 206.623 50.4868 206.619 50.5377 206.635C50.5886 206.651 50.6299 206.687 50.6548 206.734C50.6788 206.781 50.6836 206.836 50.6673 206.887C50.651 206.936 50.6155 206.979 50.5684 207.003L42.8086 211.35C42.7798 211.362 42.7481 211.369 42.7174 211.37H42.7184Z" fill="#3B7CD3"/>
        <path d="M48.7546 218.053C48.721 218.053 48.6883 218.044 48.6595 218.028C48.6307 218.011 48.6058 217.988 48.5875 217.962C48.5731 217.939 48.5635 217.914 48.5587 217.889C48.5539 217.863 48.5549 217.836 48.5607 217.81C48.5664 217.784 48.5779 217.76 48.5933 217.739C48.6087 217.718 48.6288 217.699 48.6509 217.686L54.2334 214.153C54.2785 214.125 54.3323 214.116 54.3841 214.128C54.4359 214.14 54.4801 214.171 54.5089 214.216C54.5367 214.262 54.5463 214.316 54.5339 214.367C54.5223 214.419 54.4897 214.464 54.4446 214.492L48.8621 218.025C48.8295 218.044 48.792 218.054 48.7546 218.053Z" fill="#3B7CD3"/>
        <path d="M54.3532 223.945C54.3177 223.945 54.2822 223.936 54.2515 223.918C54.2207 223.899 54.1948 223.873 54.1775 223.842C54.1516 223.796 54.1449 223.742 54.1593 223.691C54.1737 223.64 54.2073 223.597 54.2534 223.571L58.5398 221.198C58.5859 221.172 58.6406 221.166 58.6906 221.18C58.7414 221.194 58.7846 221.228 58.8106 221.274C58.824 221.297 58.8326 221.322 58.8355 221.348C58.8384 221.374 58.8374 221.4 58.8298 221.425C58.823 221.451 58.8106 221.474 58.7942 221.495C58.7779 221.516 58.7578 221.533 58.7347 221.545L54.4636 223.918C54.431 223.94 54.3916 223.949 54.3523 223.945H54.3532Z" fill="#3B7CD3"/>
        <path d="M45.5851 191.1C45.3922 191.115 45.1983 191.088 45.0178 191.019C44.8373 190.949 44.6741 190.841 44.5397 190.702C44.1931 190.303 44.1893 189.645 44.5397 188.883C44.9391 188.073 45.5093 187.359 46.2101 186.79C46.8888 186.191 47.6905 185.746 48.5593 185.49C49.357 185.279 50.0031 185.386 50.3497 185.797C50.6963 186.208 50.7001 186.854 50.3497 187.615C49.5106 189.234 48.0658 190.456 46.3301 191.013C46.0863 191.072 45.8357 191.102 45.5842 191.1H45.5851ZM49.2975 185.765C49.0806 185.769 48.8646 185.8 48.6553 185.857C47.0338 186.387 45.685 187.533 44.8987 189.047C44.6232 189.649 44.604 190.155 44.8431 190.443C45.0821 190.73 45.589 190.789 46.2303 190.622C47.8508 190.09 49.1996 188.945 49.9868 187.432C50.2623 186.826 50.2815 186.319 50.0425 186.036C49.9446 185.94 49.8284 185.866 49.6988 185.819C49.5702 185.773 49.4329 185.754 49.2966 185.765H49.2975Z" fill="#3B7CD3"/>
        <path d="M56.766 207.565C56.5731 207.58 56.3791 207.552 56.1987 207.483C56.0182 207.414 55.855 207.306 55.7215 207.167C55.3702 206.767 55.3702 206.11 55.7215 205.347C56.1228 204.538 56.694 203.824 57.3968 203.254C58.0716 202.651 58.8704 202.201 59.7373 201.938C60.535 201.727 61.1811 201.835 61.5315 202.245C61.8829 202.656 61.8781 203.302 61.5315 204.064C60.6925 205.682 59.2477 206.903 57.512 207.461C57.2691 207.526 57.0185 207.561 56.766 207.565ZM60.4746 202.229C60.2586 202.233 60.0445 202.264 59.8362 202.321C58.2128 202.849 56.862 203.996 56.0758 205.511C55.8051 206.113 55.7849 206.619 56.0239 206.907C56.263 207.194 56.766 207.254 57.4073 207.086C59.0307 206.557 60.3805 205.412 61.1677 203.897C61.4384 203.29 61.4586 202.784 61.2195 202.501C61.1226 202.404 61.0055 202.329 60.8768 202.283C60.7482 202.236 60.6109 202.218 60.4736 202.229H60.4746Z" fill="#3B7CD3"/>
        <path d="M66.3044 225.254C66.1114 225.268 65.9175 225.241 65.737 225.172C65.5565 225.103 65.3933 224.995 65.2599 224.855C64.5658 224.034 65.2992 222.315 66.9265 220.939C67.6071 220.343 68.4078 219.899 69.2756 219.639C70.0734 219.428 70.7147 219.539 71.0661 219.95C71.7563 220.772 71.0257 222.49 69.3956 223.862C68.7179 224.462 67.9172 224.907 67.0503 225.166C66.8065 225.225 66.5559 225.255 66.3044 225.254ZM70.0129 219.918C69.7979 219.922 69.5838 219.953 69.3755 220.01C68.5662 220.253 67.8183 220.67 67.1857 221.231C65.7745 222.427 65.0324 223.954 65.5623 224.58C65.8013 224.863 66.3082 224.931 66.9457 224.764C67.7559 224.52 68.5038 224.103 69.1393 223.543C70.5467 222.347 71.2888 220.82 70.7579 220.189C70.6609 220.093 70.5438 220.018 70.4152 219.971C70.2865 219.925 70.1492 219.907 70.012 219.918H70.0129Z" fill="#3B7CD3"/>
        <path d="M32.4415 173.997C32.2476 174.013 32.0537 173.985 31.8722 173.916C31.6908 173.847 31.5266 173.739 31.3932 173.598C31.0428 173.199 31.0428 172.541 31.3932 171.784C31.7935 170.972 32.3647 170.256 33.0674 169.686C34.6947 168.311 36.5129 167.876 37.207 168.698C37.9011 169.519 37.1667 171.234 35.5366 172.61C34.4556 173.499 33.3036 173.997 32.4425 173.997H32.4415ZM33.319 169.973C32.6604 170.505 32.1237 171.173 31.7484 171.932C31.4777 172.534 31.4575 173.044 31.6965 173.327C32.2265 173.953 33.8662 173.478 35.2851 172.29C36.7049 171.102 37.4345 169.563 36.9037 168.937C36.3728 168.311 34.7379 168.785 33.3151 169.973H33.319Z" fill="#3B7CD3"/>
        <path d="M19.6684 158.713C19.5033 158.724 19.3382 158.698 19.1836 158.638C19.03 158.577 18.8918 158.483 18.7785 158.362C18.4838 158.015 18.479 157.469 18.7785 156.83C19.1107 156.158 19.584 155.566 20.1657 155.092C21.5213 153.952 23.0371 153.593 23.6189 154.295C24.2016 154.997 23.5949 156.42 22.2432 157.565C21.5357 158.222 20.6294 158.625 19.6675 158.713H19.6684ZM22.7107 154.327C21.8477 154.423 21.0393 154.801 20.4096 155.399C19.8729 155.833 19.4361 156.376 19.1299 156.994C18.911 157.476 18.8947 157.883 19.0819 158.107C19.4611 158.553 20.7129 158.314 21.9734 157.25C23.233 156.185 23.6803 154.988 23.305 154.542C23.2282 154.465 23.1341 154.405 23.0314 154.368C22.9287 154.331 22.8192 154.317 22.7107 154.327Z" fill="#3B7CD3"/>
        <path d="M6.9373 147.005C6.79618 147.014 6.65602 146.991 6.52545 146.938C6.39489 146.884 6.27777 146.803 6.18369 146.698C5.92832 146.399 5.92448 145.941 6.18369 145.402C6.45921 144.843 6.85186 144.351 7.33571 143.959C7.79651 143.55 8.34084 143.247 8.93029 143.069C9.50438 142.917 9.95558 142.997 10.2061 143.297C10.4567 143.596 10.4654 144.058 10.2061 144.597C9.62726 145.707 8.6346 146.545 7.44323 146.929C7.2781 146.974 7.10818 147 6.93634 147.005H6.9373ZM7.57571 144.265C7.13794 144.619 6.78178 145.062 6.53121 145.565C6.35937 145.965 6.34401 146.272 6.48705 146.443C6.63009 146.614 6.94978 146.65 7.36067 146.542C7.89827 146.386 8.3946 146.113 8.81605 145.745C9.25189 145.39 9.60806 144.947 9.86054 144.445C10.0324 144.046 10.0477 143.739 9.9047 143.567C9.76166 143.396 9.44198 143.356 9.03109 143.464C8.49444 143.623 7.99812 143.895 7.57571 144.261V144.265Z" fill="#3B7CD3"/>
        <path d="M88.7143 214.488C81.5602 219.643 72.8798 222.359 72.6599 222.422C72.7559 222.299 75.4833 218.475 59.3138 195.765C57.1394 192.714 55.0494 189.823 53.0449 187.093C56.9483 186.215 66.2038 184.432 74.2315 185.147C84.5987 186.064 91.5578 193.521 91.7767 193.76C93.3319 196.551 94.3486 198.461 94.3486 198.461C94.3486 198.461 96.1909 196.826 97.3074 199.131C98.4238 201.436 95.9633 209.267 88.7143 214.488Z" fill="#3B7CD3"/>
        <path d="M72.13 222.79L72.5044 222.303C72.5323 222.267 75.1483 218.352 59.1506 195.881C57.0569 192.938 54.9477 190.023 52.8866 187.212L52.707 186.965L53.0018 186.901C56.6748 186.072 66.0935 184.225 74.2517 184.947C84.3597 185.845 91.1748 192.827 91.9159 193.624L91.9726 193.708C93.2081 195.925 94.1096 197.6 94.4129 198.166C94.8805 197.814 95.468 197.66 96.0478 197.739C96.6373 197.855 97.1202 198.298 97.4869 199.051C98.6476 201.444 96.1755 209.363 88.8295 214.651C81.6121 219.835 72.804 222.59 72.7157 222.626L72.13 222.79ZM53.3877 187.224C55.3816 189.959 57.4389 192.807 59.477 195.65C73.1025 214.79 73.3982 220.585 73.0113 222.099C74.8219 221.501 82.3139 218.85 88.5991 214.328C95.9115 209.061 98.1128 201.253 97.1279 199.227C97.0347 198.966 96.8811 198.732 96.6805 198.541C96.4799 198.351 96.237 198.21 95.972 198.13C95.2184 197.983 94.4888 198.613 94.4801 198.617L94.2891 198.784L94.1729 198.561C94.1729 198.561 93.1409 196.623 91.6097 193.879C90.7284 192.946 84.0525 186.215 74.2152 185.341C66.3239 184.632 57.2287 186.371 53.3886 187.224H53.3877Z" fill="#3B7CD3"/>
        <path d="M78.0787 172.996C72.7238 172.378 62.2683 170.791 60.7774 167.736C59.489 165.092 65.1637 165.307 69.4031 165.805C71.6476 167.54 75.1209 170.049 78.0797 172.996H78.0787Z" fill="#3B7CD3"/>
        <path d="M78.6343 173.264L78.064 173.195C72.1858 172.518 62.1134 170.914 60.6023 167.824C60.4641 167.606 60.3901 167.353 60.3901 167.095C60.3901 166.836 60.4641 166.583 60.6023 166.365C61.3799 165.269 64.3502 165.013 69.4229 165.608H69.4786L69.5218 165.639L70.7189 166.565C73.3503 168.493 75.8531 170.593 78.2109 172.849L78.6343 173.264ZM64.8648 165.687C62.7153 165.687 61.3559 165.991 60.9325 166.589C60.8375 166.749 60.7905 166.934 60.7953 167.12C60.8001 167.308 60.8577 167.489 60.9604 167.645C62.3802 170.552 72.5919 172.123 77.5293 172.721C75.303 170.641 72.9567 168.693 70.5029 166.887C70.1045 166.572 69.7061 166.278 69.3432 165.998C67.8571 165.814 66.3624 165.712 64.8648 165.695V165.687Z" fill="#3B7CD3"/>
    </g>
    <defs>
        <clipPath id="clip0_2004_327">
            <rect width="240.001" height="230.275" fill="white"/>
        </clipPath>
    </defs>
</svg>
